<?xml version="1.0" encoding="UTF-8" standalone="no"?>
<!DOCTYPE svg PUBLIC "-//W3C//DTD SVG 1.1//EN"
 "http://www.w3.org/Graphics/SVG/1.1/DTD/svg11.dtd">
<!-- Generated by graphviz version 2.43.0 (0)
 -->
<!-- Pages: 1 -->
<svg width="1485pt" height="726pt"
 viewBox="0.00 0.00 1484.55 726.44" xmlns="http://www.w3.org/2000/svg" xmlns:xlink="http://www.w3.org/1999/xlink">
<g id="graph0" class="graph" transform="scale(1 1) rotate(0) translate(4 722.44)">
<polygon fill="white" stroke="transparent" points="-4,4 -4,-722.44 1480.55,-722.44 1480.55,4 -4,4"/>
<!-- node0x55fa897ef7b0 -->
<g id="node1" class="node">
<title>node0x55fa897ef7b0</title>
<ellipse fill="none" stroke="black" cx="431.77" cy="-700.44" rx="76.09" ry="18"/>
<text text-anchor="middle" x="431.77" y="-696.74" font-family="Times,serif" font-size="14.00">GLOBAL_LIST</text>
</g>
<!-- node0x55fa897ef6c0 -->
<g id="node2" class="node">
<title>node0x55fa897ef6c0</title>
<ellipse fill="none" stroke="black" cx="323.77" cy="-628.44" rx="117.78" ry="18"/>
<text text-anchor="middle" x="323.77" y="-624.74" font-family="Times,serif" font-size="14.00">ARRAY_DECLARATION</text>
</g>
<!-- node0x55fa897ef7b0&#45;&#45;node0x55fa897ef6c0 -->
<g id="edge1" class="edge">
<title>node0x55fa897ef7b0&#45;&#45;node0x55fa897ef6c0</title>
<path fill="none" stroke="black" d="M407,-683.38C389.81,-672.24 366.97,-657.44 349.56,-646.16"/>
</g>
<!-- node0x55fa897f03b0 -->
<g id="node5" class="node">
<title>node0x55fa897f03b0</title>
<ellipse fill="none" stroke="black" cx="651.77" cy="-628.44" rx="63.89" ry="18"/>
<text text-anchor="middle" x="651.77" y="-624.74" font-family="Times,serif" font-size="14.00">FUNCTION</text>
</g>
<!-- node0x55fa897ef7b0&#45;&#45;node0x55fa897f03b0 -->
<g id="edge4" class="edge">
<title>node0x55fa897ef7b0&#45;&#45;node0x55fa897f03b0</title>
<path fill="none" stroke="black" d="M475.24,-685.61C514.68,-673.06 572.41,-654.69 611,-642.41"/>
</g>
<!-- node0x55fa897ef350 -->
<g id="node3" class="node">
<title>node0x55fa897ef350</title>
<ellipse fill="none" stroke="black" cx="106.77" cy="-547.57" rx="106.55" ry="26.74"/>
<text text-anchor="middle" x="106.77" y="-551.37" font-family="Times,serif" font-size="14.00">IDENTIFIER_DATA</text>
<text text-anchor="middle" x="106.77" y="-536.37" font-family="Times,serif" font-size="14.00">array</text>
</g>
<!-- node0x55fa897ef6c0&#45;&#45;node0x55fa897ef350 -->
<g id="edge2" class="edge">
<title>node0x55fa897ef6c0&#45;&#45;node0x55fa897ef350</title>
<path fill="none" stroke="black" d="M280.38,-611.67C247.48,-599.71 201.91,-583.15 165.71,-569.99"/>
</g>
<!-- node0x55fa897ef5b0 -->
<g id="node4" class="node">
<title>node0x55fa897ef5b0</title>
<ellipse fill="none" stroke="black" cx="323.77" cy="-547.57" rx="92.76" ry="26.74"/>
<text text-anchor="middle" x="323.77" y="-551.37" font-family="Times,serif" font-size="14.00">NUMBER_DATA</text>
<text text-anchor="middle" x="323.77" y="-536.37" font-family="Times,serif" font-size="14.00">102</text>
</g>
<!-- node0x55fa897ef6c0&#45;&#45;node0x55fa897ef5b0 -->
<g id="edge3" class="edge">
<title>node0x55fa897ef6c0&#45;&#45;node0x55fa897ef5b0</title>
<path fill="none" stroke="black" d="M323.77,-610.33C323.77,-599.91 323.77,-586.39 323.77,-574.65"/>
</g>
<!-- node0x55fa897ef820 -->
<g id="node6" class="node">
<title>node0x55fa897ef820</title>
<ellipse fill="none" stroke="black" cx="540.77" cy="-547.57" rx="106.55" ry="26.74"/>
<text text-anchor="middle" x="540.77" y="-551.37" font-family="Times,serif" font-size="14.00">IDENTIFIER_DATA</text>
<text text-anchor="middle" x="540.77" y="-536.37" font-family="Times,serif" font-size="14.00">main</text>
</g>
<!-- node0x55fa897f03b0&#45;&#45;node0x55fa897ef820 -->
<g id="edge5" class="edge">
<title>node0x55fa897f03b0&#45;&#45;node0x55fa897ef820</title>
<path fill="none" stroke="black" d="M629.31,-611.48C613.85,-600.5 593.02,-585.69 575.45,-573.21"/>
</g>
<!-- node0x55fa897ef8e0 -->
<g id="node7" class="node">
<title>node0x55fa897ef8e0</title>
<ellipse fill="none" stroke="black" cx="762.77" cy="-547.57" rx="96.68" ry="18"/>
<text text-anchor="middle" x="762.77" y="-543.87" font-family="Times,serif" font-size="14.00">PARAMETER_LIST</text>
</g>
<!-- node0x55fa897f03b0&#45;&#45;node0x55fa897ef8e0 -->
<g id="edge6" class="edge">
<title>node0x55fa897f03b0&#45;&#45;node0x55fa897ef8e0</title>
<path fill="none" stroke="black" d="M674.24,-611.48C693.24,-597.98 720.37,-578.7 739.58,-565.05"/>
</g>
<!-- node0x55fa897f0310 -->
<g id="node10" class="node">
<title>node0x55fa897f0310</title>
<ellipse fill="none" stroke="black" cx="953.77" cy="-547.57" rx="44.39" ry="18"/>
<text text-anchor="middle" x="953.77" y="-543.87" font-family="Times,serif" font-size="14.00">BLOCK</text>
</g>
<!-- node0x55fa897f03b0&#45;&#45;node0x55fa897f0310 -->
<g id="edge9" class="edge">
<title>node0x55fa897f03b0&#45;&#45;node0x55fa897f0310</title>
<path fill="none" stroke="black" d="M699.81,-616.52C743.91,-606.3 810.99,-590.28 868.77,-574.44 885.73,-569.79 904.44,-564.15 919.98,-559.33"/>
</g>
<!-- node0x55fa897ef890 -->
<g id="node8" class="node">
<title>node0x55fa897ef890</title>
<ellipse fill="none" stroke="black" cx="530.77" cy="-457.83" rx="106.55" ry="26.74"/>
<text text-anchor="middle" x="530.77" y="-461.63" font-family="Times,serif" font-size="14.00">IDENTIFIER_DATA</text>
<text text-anchor="middle" x="530.77" y="-446.63" font-family="Times,serif" font-size="14.00">x</text>
</g>
<!-- node0x55fa897ef8e0&#45;&#45;node0x55fa897ef890 -->
<g id="edge7" class="edge">
<title>node0x55fa897ef8e0&#45;&#45;node0x55fa897ef890</title>
<path fill="none" stroke="black" d="M722.1,-531.19C685.06,-517.18 629.97,-496.35 588.41,-480.63"/>
</g>
<!-- node0x55fa897ef950 -->
<g id="node9" class="node">
<title>node0x55fa897ef950</title>
<ellipse fill="none" stroke="black" cx="762.77" cy="-457.83" rx="106.55" ry="26.74"/>
<text text-anchor="middle" x="762.77" y="-461.63" font-family="Times,serif" font-size="14.00">IDENTIFIER_DATA</text>
<text text-anchor="middle" x="762.77" y="-446.63" font-family="Times,serif" font-size="14.00">y</text>
</g>
<!-- node0x55fa897ef8e0&#45;&#45;node0x55fa897ef950 -->
<g id="edge8" class="edge">
<title>node0x55fa897ef8e0&#45;&#45;node0x55fa897ef950</title>
<path fill="none" stroke="black" d="M762.77,-529.24C762.77,-516.55 762.77,-499.12 762.77,-484.78"/>
</g>
<!-- node0x55fa897efd20 -->
<g id="node11" class="node">
<title>node0x55fa897efd20</title>
<ellipse fill="none" stroke="black" cx="984.77" cy="-457.83" rx="96.68" ry="18"/>
<text text-anchor="middle" x="984.77" y="-454.13" font-family="Times,serif" font-size="14.00">STATEMENT_LIST</text>
</g>
<!-- node0x55fa897f0310&#45;&#45;node0x55fa897efd20 -->
<g id="edge10" class="edge">
<title>node0x55fa897f0310&#45;&#45;node0x55fa897efd20</title>
<path fill="none" stroke="black" d="M959.75,-529.65C965.2,-514.22 973.23,-491.51 978.71,-476"/>
</g>
<!-- node0x55fa897efc80 -->
<g id="node12" class="node">
<title>node0x55fa897efc80</title>
<ellipse fill="none" stroke="black" cx="851.77" cy="-376.96" rx="141.88" ry="18"/>
<text text-anchor="middle" x="851.77" y="-373.26" font-family="Times,serif" font-size="14.00">ASSIGNMENT_STATEMENT</text>
</g>
<!-- node0x55fa897efd20&#45;&#45;node0x55fa897efc80 -->
<g id="edge11" class="edge">
<title>node0x55fa897efd20&#45;&#45;node0x55fa897efc80</title>
<path fill="none" stroke="black" d="M957.22,-440.49C934.69,-427.13 902.97,-408.32 880.21,-394.83"/>
</g>
<!-- node0x55fa897f01d0 -->
<g id="node17" class="node">
<title>node0x55fa897f01d0</title>
<ellipse fill="none" stroke="black" cx="1116.77" cy="-376.96" rx="105.08" ry="18"/>
<text text-anchor="middle" x="1116.77" y="-373.26" font-family="Times,serif" font-size="14.00">PRINT_STATEMENT</text>
</g>
<!-- node0x55fa897efd20&#45;&#45;node0x55fa897f01d0 -->
<g id="edge16" class="edge">
<title>node0x55fa897efd20&#45;&#45;node0x55fa897f01d0</title>
<path fill="none" stroke="black" d="M1012.12,-440.49C1034.63,-427.04 1066.39,-408.07 1089,-394.55"/>
</g>
<!-- node0x55fa897efb70 -->
<g id="node13" class="node">
<title>node0x55fa897efb70</title>
<ellipse fill="none" stroke="black" cx="672.77" cy="-296.09" rx="97.48" ry="18"/>
<text text-anchor="middle" x="672.77" y="-292.39" font-family="Times,serif" font-size="14.00">ARRAY_INDEXING</text>
</g>
<!-- node0x55fa897efc80&#45;&#45;node0x55fa897efb70 -->
<g id="edge12" class="edge">
<title>node0x55fa897efc80&#45;&#45;node0x55fa897efb70</title>
<path fill="none" stroke="black" d="M814.25,-359.43C783.19,-345.74 739.34,-326.42 708.72,-312.93"/>
</g>
<!-- node0x55fa897efbe0 -->
<g id="node16" class="node">
<title>node0x55fa897efbe0</title>
<ellipse fill="none" stroke="black" cx="880.77" cy="-296.09" rx="92.76" ry="26.74"/>
<text text-anchor="middle" x="880.77" y="-299.89" font-family="Times,serif" font-size="14.00">NUMBER_DATA</text>
<text text-anchor="middle" x="880.77" y="-284.89" font-family="Times,serif" font-size="14.00">20</text>
</g>
<!-- node0x55fa897efc80&#45;&#45;node0x55fa897efbe0 -->
<g id="edge15" class="edge">
<title>node0x55fa897efc80&#45;&#45;node0x55fa897efbe0</title>
<path fill="none" stroke="black" d="M858.07,-358.85C861.93,-348.34 866.96,-334.67 871.29,-322.87"/>
</g>
<!-- node0x55fa897efa60 -->
<g id="node14" class="node">
<title>node0x55fa897efa60</title>
<ellipse fill="none" stroke="black" cx="519.77" cy="-206.35" rx="106.55" ry="26.74"/>
<text text-anchor="middle" x="519.77" y="-210.15" font-family="Times,serif" font-size="14.00">IDENTIFIER_DATA</text>
<text text-anchor="middle" x="519.77" y="-195.15" font-family="Times,serif" font-size="14.00">array</text>
</g>
<!-- node0x55fa897efb70&#45;&#45;node0x55fa897efa60 -->
<g id="edge13" class="edge">
<title>node0x55fa897efb70&#45;&#45;node0x55fa897efa60</title>
<path fill="none" stroke="black" d="M644.35,-278.79C621.02,-265.41 587.65,-246.28 561.32,-231.18"/>
</g>
<!-- node0x55fa897efad0 -->
<g id="node15" class="node">
<title>node0x55fa897efad0</title>
<ellipse fill="none" stroke="black" cx="736.77" cy="-206.35" rx="92.76" ry="26.74"/>
<text text-anchor="middle" x="736.77" y="-210.15" font-family="Times,serif" font-size="14.00">NUMBER_DATA</text>
<text text-anchor="middle" x="736.77" y="-195.15" font-family="Times,serif" font-size="14.00">2</text>
</g>
<!-- node0x55fa897efb70&#45;&#45;node0x55fa897efad0 -->
<g id="edge14" class="edge">
<title>node0x55fa897efb70&#45;&#45;node0x55fa897efad0</title>
<path fill="none" stroke="black" d="M685.11,-278.17C694.48,-265.33 707.53,-247.44 718.16,-232.86"/>
</g>
<!-- node0x55fa897f00e0 -->
<g id="node18" class="node">
<title>node0x55fa897f00e0</title>
<ellipse fill="none" stroke="black" cx="1116.77" cy="-296.09" rx="97.48" ry="18"/>
<text text-anchor="middle" x="1116.77" y="-292.39" font-family="Times,serif" font-size="14.00">ARRAY_INDEXING</text>
</g>
<!-- node0x55fa897f01d0&#45;&#45;node0x55fa897f00e0 -->
<g id="edge17" class="edge">
<title>node0x55fa897f01d0&#45;&#45;node0x55fa897f00e0</title>
<path fill="none" stroke="black" d="M1116.77,-358.85C1116.77,-345.62 1116.77,-327.39 1116.77,-314.17"/>
</g>
<!-- node0x55fa897efd90 -->
<g id="node19" class="node">
<title>node0x55fa897efd90</title>
<ellipse fill="none" stroke="black" cx="1052.77" cy="-206.35" rx="106.55" ry="26.74"/>
<text text-anchor="middle" x="1052.77" y="-210.15" font-family="Times,serif" font-size="14.00">IDENTIFIER_DATA</text>
<text text-anchor="middle" x="1052.77" y="-195.15" font-family="Times,serif" font-size="14.00">array</text>
</g>
<!-- node0x55fa897f00e0&#45;&#45;node0x55fa897efd90 -->
<g id="edge18" class="edge">
<title>node0x55fa897f00e0&#45;&#45;node0x55fa897efd90</title>
<path fill="none" stroke="black" d="M1104.43,-278.17C1095.06,-265.33 1082.02,-247.44 1071.38,-232.86"/>
</g>
<!-- node0x55fa897f0090 -->
<g id="node20" class="node">
<title>node0x55fa897f0090</title>
<ellipse fill="none" stroke="black" cx="1258.77" cy="-206.35" rx="81.13" ry="26.74"/>
<text text-anchor="middle" x="1258.77" y="-210.15" font-family="Times,serif" font-size="14.00">EXPRESSION</text>
<text text-anchor="middle" x="1258.77" y="-195.15" font-family="Times,serif" font-size="14.00">+</text>
</g>
<!-- node0x55fa897f00e0&#45;&#45;node0x55fa897f0090 -->
<g id="edge19" class="edge">
<title>node0x55fa897f00e0&#45;&#45;node0x55fa897f0090</title>
<path fill="none" stroke="black" d="M1143.48,-278.59C1165.5,-264.99 1196.97,-245.54 1221.47,-230.4"/>
</g>
<!-- node0x55fa897eff10 -->
<g id="node21" class="node">
<title>node0x55fa897eff10</title>
<ellipse fill="none" stroke="black" cx="1147.77" cy="-116.61" rx="97.48" ry="18"/>
<text text-anchor="middle" x="1147.77" y="-112.91" font-family="Times,serif" font-size="14.00">ARRAY_INDEXING</text>
</g>
<!-- node0x55fa897f0090&#45;&#45;node0x55fa897eff10 -->
<g id="edge20" class="edge">
<title>node0x55fa897f0090&#45;&#45;node0x55fa897eff10</title>
<path fill="none" stroke="black" d="M1228.44,-181.37C1209.57,-166.46 1185.77,-147.65 1168.93,-134.33"/>
</g>
<!-- node0x55fa897effd0 -->
<g id="node24" class="node">
<title>node0x55fa897effd0</title>
<ellipse fill="none" stroke="black" cx="1369.77" cy="-116.61" rx="106.55" ry="26.74"/>
<text text-anchor="middle" x="1369.77" y="-120.41" font-family="Times,serif" font-size="14.00">IDENTIFIER_DATA</text>
<text text-anchor="middle" x="1369.77" y="-105.41" font-family="Times,serif" font-size="14.00">y</text>
</g>
<!-- node0x55fa897f0090&#45;&#45;node0x55fa897effd0 -->
<g id="edge23" class="edge">
<title>node0x55fa897f0090&#45;&#45;node0x55fa897effd0</title>
<path fill="none" stroke="black" d="M1289.1,-181.37C1304.38,-169.3 1322.89,-154.67 1338.32,-142.47"/>
</g>
<!-- node0x55fa897efe00 -->
<g id="node22" class="node">
<title>node0x55fa897efe00</title>
<ellipse fill="none" stroke="black" cx="1031.77" cy="-26.87" rx="106.55" ry="26.74"/>
<text text-anchor="middle" x="1031.77" y="-30.67" font-family="Times,serif" font-size="14.00">IDENTIFIER_DATA</text>
<text text-anchor="middle" x="1031.77" y="-15.67" font-family="Times,serif" font-size="14.00">array</text>
</g>
<!-- node0x55fa897eff10&#45;&#45;node0x55fa897efe00 -->
<g id="edge21" class="edge">
<title>node0x55fa897eff10&#45;&#45;node0x55fa897efe00</title>
<path fill="none" stroke="black" d="M1125.68,-98.9C1108.33,-85.77 1083.9,-67.3 1064.31,-52.48"/>
</g>
<!-- node0x55fa897efe70 -->
<g id="node23" class="node">
<title>node0x55fa897efe70</title>
<ellipse fill="none" stroke="black" cx="1263.77" cy="-26.87" rx="106.55" ry="26.74"/>
<text text-anchor="middle" x="1263.77" y="-30.67" font-family="Times,serif" font-size="14.00">IDENTIFIER_DATA</text>
<text text-anchor="middle" x="1263.77" y="-15.67" font-family="Times,serif" font-size="14.00">x</text>
</g>
<!-- node0x55fa897eff10&#45;&#45;node0x55fa897efe70 -->
<g id="edge22" class="edge">
<title>node0x55fa897eff10&#45;&#45;node0x55fa897efe70</title>
<path fill="none" stroke="black" d="M1169.86,-98.9C1187.22,-85.77 1211.64,-67.3 1231.23,-52.48"/>
</g>
</g>
</svg>
