<?xml version="1.0" encoding="UTF-8" standalone="no"?>
<!DOCTYPE svg PUBLIC "-//W3C//DTD SVG 1.1//EN"
 "http://www.w3.org/Graphics/SVG/1.1/DTD/svg11.dtd">
<!-- Generated by graphviz version 2.43.0 (0)
 -->
<!-- Pages: 1 -->
<svg width="2450pt" height="960pt"
 viewBox="0.00 0.00 2450.40 960.18" xmlns="http://www.w3.org/2000/svg" xmlns:xlink="http://www.w3.org/1999/xlink">
<g id="graph0" class="graph" transform="scale(1 1) rotate(0) translate(4 956.18)">
<polygon fill="white" stroke="transparent" points="-4,4 -4,-956.18 2446.4,-956.18 2446.4,4 -4,4"/>
<!-- node0x55fa953d7fe0 -->
<g id="node1" class="node">
<title>node0x55fa953d7fe0</title>
<ellipse fill="none" stroke="black" cx="786.77" cy="-934.18" rx="76.09" ry="18"/>
<text text-anchor="middle" x="786.77" y="-930.48" font-family="Times,serif" font-size="14.00">GLOBAL_LIST</text>
</g>
<!-- node0x55fa953d7f40 -->
<g id="node2" class="node">
<title>node0x55fa953d7f40</title>
<ellipse fill="none" stroke="black" cx="786.77" cy="-862.18" rx="63.89" ry="18"/>
<text text-anchor="middle" x="786.77" y="-858.48" font-family="Times,serif" font-size="14.00">FUNCTION</text>
</g>
<!-- node0x55fa953d7fe0&#45;&#45;node0x55fa953d7f40 -->
<g id="edge1" class="edge">
<title>node0x55fa953d7fe0&#45;&#45;node0x55fa953d7f40</title>
<path fill="none" stroke="black" d="M786.77,-915.88C786.77,-905.03 786.77,-891.1 786.77,-880.29"/>
</g>
<!-- node0x55fa953d7350 -->
<g id="node3" class="node">
<title>node0x55fa953d7350</title>
<ellipse fill="none" stroke="black" cx="564.77" cy="-781.31" rx="106.55" ry="26.74"/>
<text text-anchor="middle" x="564.77" y="-785.11" font-family="Times,serif" font-size="14.00">IDENTIFIER_DATA</text>
<text text-anchor="middle" x="564.77" y="-770.11" font-family="Times,serif" font-size="14.00">main</text>
</g>
<!-- node0x55fa953d7f40&#45;&#45;node0x55fa953d7350 -->
<g id="edge2" class="edge">
<title>node0x55fa953d7f40&#45;&#45;node0x55fa953d7350</title>
<path fill="none" stroke="black" d="M748.86,-847.71C714.81,-835.61 664.23,-817.64 624.7,-803.6"/>
</g>
<!-- node0x55fa953d7410 -->
<g id="node4" class="node">
<title>node0x55fa953d7410</title>
<ellipse fill="none" stroke="black" cx="786.77" cy="-781.31" rx="96.68" ry="18"/>
<text text-anchor="middle" x="786.77" y="-777.61" font-family="Times,serif" font-size="14.00">PARAMETER_LIST</text>
</g>
<!-- node0x55fa953d7f40&#45;&#45;node0x55fa953d7410 -->
<g id="edge3" class="edge">
<title>node0x55fa953d7f40&#45;&#45;node0x55fa953d7410</title>
<path fill="none" stroke="black" d="M786.77,-844.07C786.77,-830.84 786.77,-812.61 786.77,-799.39"/>
</g>
<!-- node0x55fa953d7ea0 -->
<g id="node7" class="node">
<title>node0x55fa953d7ea0</title>
<ellipse fill="none" stroke="black" cx="976.77" cy="-781.31" rx="44.39" ry="18"/>
<text text-anchor="middle" x="976.77" y="-777.61" font-family="Times,serif" font-size="14.00">BLOCK</text>
</g>
<!-- node0x55fa953d7f40&#45;&#45;node0x55fa953d7ea0 -->
<g id="edge6" class="edge">
<title>node0x55fa953d7f40&#45;&#45;node0x55fa953d7ea0</title>
<path fill="none" stroke="black" d="M821.18,-846.9C857.11,-831.98 912.89,-808.83 946.99,-794.67"/>
</g>
<!-- node0x55fa953d73c0 -->
<g id="node5" class="node">
<title>node0x55fa953d73c0</title>
<ellipse fill="none" stroke="black" cx="554.77" cy="-691.57" rx="106.55" ry="26.74"/>
<text text-anchor="middle" x="554.77" y="-695.37" font-family="Times,serif" font-size="14.00">IDENTIFIER_DATA</text>
<text text-anchor="middle" x="554.77" y="-680.37" font-family="Times,serif" font-size="14.00">a</text>
</g>
<!-- node0x55fa953d7410&#45;&#45;node0x55fa953d73c0 -->
<g id="edge4" class="edge">
<title>node0x55fa953d7410&#45;&#45;node0x55fa953d73c0</title>
<path fill="none" stroke="black" d="M746.1,-764.93C709.06,-750.92 653.97,-730.09 612.41,-714.37"/>
</g>
<!-- node0x55fa953d7480 -->
<g id="node6" class="node">
<title>node0x55fa953d7480</title>
<ellipse fill="none" stroke="black" cx="786.77" cy="-691.57" rx="106.55" ry="26.74"/>
<text text-anchor="middle" x="786.77" y="-695.37" font-family="Times,serif" font-size="14.00">IDENTIFIER_DATA</text>
<text text-anchor="middle" x="786.77" y="-680.37" font-family="Times,serif" font-size="14.00">b</text>
</g>
<!-- node0x55fa953d7410&#45;&#45;node0x55fa953d7480 -->
<g id="edge5" class="edge">
<title>node0x55fa953d7410&#45;&#45;node0x55fa953d7480</title>
<path fill="none" stroke="black" d="M786.77,-762.98C786.77,-750.29 786.77,-732.86 786.77,-718.52"/>
</g>
<!-- node0x55fa953d7c50 -->
<g id="node8" class="node">
<title>node0x55fa953d7c50</title>
<ellipse fill="none" stroke="black" cx="1008.77" cy="-691.57" rx="96.68" ry="18"/>
<text text-anchor="middle" x="1008.77" y="-687.87" font-family="Times,serif" font-size="14.00">STATEMENT_LIST</text>
</g>
<!-- node0x55fa953d7ea0&#45;&#45;node0x55fa953d7c50 -->
<g id="edge7" class="edge">
<title>node0x55fa953d7ea0&#45;&#45;node0x55fa953d7c50</title>
<path fill="none" stroke="black" d="M982.94,-763.39C988.57,-747.96 996.85,-725.25 1002.51,-709.74"/>
</g>
<!-- node0x55fa953d26d0 -->
<g id="node9" class="node">
<title>node0x55fa953d26d0</title>
<ellipse fill="none" stroke="black" cx="917.77" cy="-610.7" rx="44.39" ry="18"/>
<text text-anchor="middle" x="917.77" y="-607" font-family="Times,serif" font-size="14.00">BLOCK</text>
</g>
<!-- node0x55fa953d7c50&#45;&#45;node0x55fa953d26d0 -->
<g id="edge8" class="edge">
<title>node0x55fa953d7c50&#45;&#45;node0x55fa953d26d0</title>
<path fill="none" stroke="black" d="M989.47,-673.84C973.61,-660.1 951.31,-640.77 935.81,-627.33"/>
</g>
<!-- node0x55fa953d7d60 -->
<g id="node37" class="node">
<title>node0x55fa953d7d60</title>
<ellipse fill="none" stroke="black" cx="1100.77" cy="-610.7" rx="105.08" ry="18"/>
<text text-anchor="middle" x="1100.77" y="-607" font-family="Times,serif" font-size="14.00">PRINT_STATEMENT</text>
</g>
<!-- node0x55fa953d7c50&#45;&#45;node0x55fa953d7d60 -->
<g id="edge36" class="edge">
<title>node0x55fa953d7c50&#45;&#45;node0x55fa953d7d60</title>
<path fill="none" stroke="black" d="M1028.28,-673.84C1043.9,-660.46 1065.69,-641.78 1081.29,-628.4"/>
</g>
<!-- node0x55fa953d77d0 -->
<g id="node10" class="node">
<title>node0x55fa953d77d0</title>
<ellipse fill="none" stroke="black" cx="609.77" cy="-529.83" rx="106.68" ry="18"/>
<text text-anchor="middle" x="609.77" y="-526.13" font-family="Times,serif" font-size="14.00">DECLARATION_LIST</text>
</g>
<!-- node0x55fa953d26d0&#45;&#45;node0x55fa953d77d0 -->
<g id="edge9" class="edge">
<title>node0x55fa953d26d0&#45;&#45;node0x55fa953d77d0</title>
<path fill="none" stroke="black" d="M881.23,-600.34C827.93,-586.69 728.41,-561.21 665.81,-545.18"/>
</g>
<!-- node0x55fa953d2680 -->
<g id="node14" class="node">
<title>node0x55fa953d2680</title>
<ellipse fill="none" stroke="black" cx="917.77" cy="-529.83" rx="96.68" ry="18"/>
<text text-anchor="middle" x="917.77" y="-526.13" font-family="Times,serif" font-size="14.00">STATEMENT_LIST</text>
</g>
<!-- node0x55fa953d26d0&#45;&#45;node0x55fa953d2680 -->
<g id="edge13" class="edge">
<title>node0x55fa953d26d0&#45;&#45;node0x55fa953d2680</title>
<path fill="none" stroke="black" d="M917.77,-592.59C917.77,-579.36 917.77,-561.13 917.77,-547.91"/>
</g>
<!-- node0x55fa953d7900 -->
<g id="node11" class="node">
<title>node0x55fa953d7900</title>
<ellipse fill="none" stroke="black" cx="338.77" cy="-448.96" rx="81.49" ry="18"/>
<text text-anchor="middle" x="338.77" y="-445.26" font-family="Times,serif" font-size="14.00">DECLARATION</text>
</g>
<!-- node0x55fa953d77d0&#45;&#45;node0x55fa953d7900 -->
<g id="edge10" class="edge">
<title>node0x55fa953d77d0&#45;&#45;node0x55fa953d7900</title>
<path fill="none" stroke="black" d="M558.8,-514C509.12,-499.54 434.21,-477.74 385.89,-463.67"/>
</g>
<!-- node0x55fa953d7590 -->
<g id="node12" class="node">
<title>node0x55fa953d7590</title>
<ellipse fill="none" stroke="black" cx="106.77" cy="-368.09" rx="106.55" ry="26.74"/>
<text text-anchor="middle" x="106.77" y="-371.89" font-family="Times,serif" font-size="14.00">IDENTIFIER_DATA</text>
<text text-anchor="middle" x="106.77" y="-356.89" font-family="Times,serif" font-size="14.00">i</text>
</g>
<!-- node0x55fa953d7900&#45;&#45;node0x55fa953d7590 -->
<g id="edge11" class="edge">
<title>node0x55fa953d7900&#45;&#45;node0x55fa953d7590</title>
<path fill="none" stroke="black" d="M296.49,-433.59C260.68,-421.41 208.86,-403.8 168.43,-390.05"/>
</g>
<!-- node0x55fa953d7a10 -->
<g id="node13" class="node">
<title>node0x55fa953d7a10</title>
<ellipse fill="none" stroke="black" cx="338.77" cy="-368.09" rx="106.55" ry="26.74"/>
<text text-anchor="middle" x="338.77" y="-371.89" font-family="Times,serif" font-size="14.00">IDENTIFIER_DATA</text>
<text text-anchor="middle" x="338.77" y="-356.89" font-family="Times,serif" font-size="14.00">__FOR_END__</text>
</g>
<!-- node0x55fa953d7900&#45;&#45;node0x55fa953d7a10 -->
<g id="edge12" class="edge">
<title>node0x55fa953d7900&#45;&#45;node0x55fa953d7a10</title>
<path fill="none" stroke="black" d="M338.77,-430.85C338.77,-420.43 338.77,-406.91 338.77,-395.17"/>
</g>
<!-- node0x55fa953d7650 -->
<g id="node15" class="node">
<title>node0x55fa953d7650</title>
<ellipse fill="none" stroke="black" cx="767.77" cy="-448.96" rx="141.88" ry="18"/>
<text text-anchor="middle" x="767.77" y="-445.26" font-family="Times,serif" font-size="14.00">ASSIGNMENT_STATEMENT</text>
</g>
<!-- node0x55fa953d2680&#45;&#45;node0x55fa953d7650 -->
<g id="edge14" class="edge">
<title>node0x55fa953d2680&#45;&#45;node0x55fa953d7650</title>
<path fill="none" stroke="black" d="M887.06,-512.68C861.51,-499.25 825.3,-480.21 799.48,-466.63"/>
</g>
<!-- node0x55fa953d74d0 -->
<g id="node18" class="node">
<title>node0x55fa953d74d0</title>
<ellipse fill="none" stroke="black" cx="1068.77" cy="-448.96" rx="141.88" ry="18"/>
<text text-anchor="middle" x="1068.77" y="-445.26" font-family="Times,serif" font-size="14.00">ASSIGNMENT_STATEMENT</text>
</g>
<!-- node0x55fa953d2680&#45;&#45;node0x55fa953d74d0 -->
<g id="edge17" class="edge">
<title>node0x55fa953d2680&#45;&#45;node0x55fa953d74d0</title>
<path fill="none" stroke="black" d="M948.69,-512.68C974.41,-499.25 1010.87,-480.21 1036.85,-466.63"/>
</g>
<!-- node0x55fa953d2630 -->
<g id="node23" class="node">
<title>node0x55fa953d2630</title>
<ellipse fill="none" stroke="black" cx="1573.77" cy="-448.96" rx="108.58" ry="18"/>
<text text-anchor="middle" x="1573.77" y="-445.26" font-family="Times,serif" font-size="14.00">WHILE_STATEMENT</text>
</g>
<!-- node0x55fa953d2680&#45;&#45;node0x55fa953d2630 -->
<g id="edge22" class="edge">
<title>node0x55fa953d2680&#45;&#45;node0x55fa953d2630</title>
<path fill="none" stroke="black" d="M969.76,-514.57C986.86,-510.3 1006.03,-505.96 1023.77,-502.96 1179.12,-476.66 1361.54,-462.29 1472.34,-455.37"/>
</g>
<!-- node0x55fa953d7710 -->
<g id="node16" class="node">
<title>node0x55fa953d7710</title>
<ellipse fill="none" stroke="black" cx="570.77" cy="-368.09" rx="106.55" ry="26.74"/>
<text text-anchor="middle" x="570.77" y="-371.89" font-family="Times,serif" font-size="14.00">IDENTIFIER_DATA</text>
<text text-anchor="middle" x="570.77" y="-356.89" font-family="Times,serif" font-size="14.00">i</text>
</g>
<!-- node0x55fa953d7650&#45;&#45;node0x55fa953d7710 -->
<g id="edge15" class="edge">
<title>node0x55fa953d7650&#45;&#45;node0x55fa953d7710</title>
<path fill="none" stroke="black" d="M726.95,-431.62C697.77,-419.93 658.14,-404.07 626.11,-391.24"/>
</g>
<!-- node0x55fa953d7600 -->
<g id="node17" class="node">
<title>node0x55fa953d7600</title>
<ellipse fill="none" stroke="black" cx="802.77" cy="-368.09" rx="106.55" ry="26.74"/>
<text text-anchor="middle" x="802.77" y="-371.89" font-family="Times,serif" font-size="14.00">IDENTIFIER_DATA</text>
<text text-anchor="middle" x="802.77" y="-356.89" font-family="Times,serif" font-size="14.00">a</text>
</g>
<!-- node0x55fa953d7650&#45;&#45;node0x55fa953d7600 -->
<g id="edge16" class="edge">
<title>node0x55fa953d7650&#45;&#45;node0x55fa953d7600</title>
<path fill="none" stroke="black" d="M775.37,-430.85C780.03,-420.34 786.1,-406.67 791.33,-394.87"/>
</g>
<!-- node0x55fa953d7520 -->
<g id="node19" class="node">
<title>node0x55fa953d7520</title>
<ellipse fill="none" stroke="black" cx="1034.77" cy="-368.09" rx="106.55" ry="26.74"/>
<text text-anchor="middle" x="1034.77" y="-371.89" font-family="Times,serif" font-size="14.00">IDENTIFIER_DATA</text>
<text text-anchor="middle" x="1034.77" y="-356.89" font-family="Times,serif" font-size="14.00">__FOR_END__</text>
</g>
<!-- node0x55fa953d74d0&#45;&#45;node0x55fa953d7520 -->
<g id="edge18" class="edge">
<title>node0x55fa953d74d0&#45;&#45;node0x55fa953d7520</title>
<path fill="none" stroke="black" d="M1061.4,-430.85C1056.86,-420.34 1050.97,-406.67 1045.89,-394.87"/>
</g>
<!-- node0x55fa953d7840 -->
<g id="node20" class="node">
<title>node0x55fa953d7840</title>
<ellipse fill="none" stroke="black" cx="1240.77" cy="-368.09" rx="81.13" ry="26.74"/>
<text text-anchor="middle" x="1240.77" y="-371.89" font-family="Times,serif" font-size="14.00">EXPRESSION</text>
<text text-anchor="middle" x="1240.77" y="-356.89" font-family="Times,serif" font-size="14.00">+</text>
</g>
<!-- node0x55fa953d74d0&#45;&#45;node0x55fa953d7840 -->
<g id="edge19" class="edge">
<title>node0x55fa953d74d0&#45;&#45;node0x55fa953d7840</title>
<path fill="none" stroke="black" d="M1104.83,-431.43C1130.93,-419.46 1166.43,-403.18 1194.61,-390.26"/>
</g>
<!-- node0x55fa953d76c0 -->
<g id="node21" class="node">
<title>node0x55fa953d76c0</title>
<ellipse fill="none" stroke="black" cx="1023.77" cy="-278.35" rx="106.55" ry="26.74"/>
<text text-anchor="middle" x="1023.77" y="-282.15" font-family="Times,serif" font-size="14.00">IDENTIFIER_DATA</text>
<text text-anchor="middle" x="1023.77" y="-267.15" font-family="Times,serif" font-size="14.00">b</text>
</g>
<!-- node0x55fa953d7840&#45;&#45;node0x55fa953d76c0 -->
<g id="edge20" class="edge">
<title>node0x55fa953d7840&#45;&#45;node0x55fa953d76c0</title>
<path fill="none" stroke="black" d="M1190.72,-346.85C1157.17,-333.29 1113,-315.43 1078.52,-301.49"/>
</g>
<!-- node0x55fa953d7780 -->
<g id="node22" class="node">
<title>node0x55fa953d7780</title>
<ellipse fill="none" stroke="black" cx="1240.77" cy="-278.35" rx="92.76" ry="26.74"/>
<text text-anchor="middle" x="1240.77" y="-282.15" font-family="Times,serif" font-size="14.00">NUMBER_DATA</text>
<text text-anchor="middle" x="1240.77" y="-267.15" font-family="Times,serif" font-size="14.00">1</text>
</g>
<!-- node0x55fa953d7840&#45;&#45;node0x55fa953d7780 -->
<g id="edge21" class="edge">
<title>node0x55fa953d7840&#45;&#45;node0x55fa953d7780</title>
<path fill="none" stroke="black" d="M1240.77,-340.77C1240.77,-329.56 1240.77,-316.52 1240.77,-305.35"/>
</g>
<!-- node0x55fa953d7ab0 -->
<g id="node24" class="node">
<title>node0x55fa953d7ab0</title>
<ellipse fill="none" stroke="black" cx="1573.77" cy="-368.09" rx="65.52" ry="26.74"/>
<text text-anchor="middle" x="1573.77" y="-371.89" font-family="Times,serif" font-size="14.00">RELATION</text>
<text text-anchor="middle" x="1573.77" y="-356.89" font-family="Times,serif" font-size="14.00">&lt;</text>
</g>
<!-- node0x55fa953d2630&#45;&#45;node0x55fa953d7ab0 -->
<g id="edge23" class="edge">
<title>node0x55fa953d2630&#45;&#45;node0x55fa953d7ab0</title>
<path fill="none" stroke="black" d="M1573.77,-430.85C1573.77,-420.43 1573.77,-406.91 1573.77,-395.17"/>
</g>
<!-- node0x55fa953d25e0 -->
<g id="node27" class="node">
<title>node0x55fa953d25e0</title>
<ellipse fill="none" stroke="black" cx="1806.77" cy="-368.09" rx="44.39" ry="18"/>
<text text-anchor="middle" x="1806.77" y="-364.39" font-family="Times,serif" font-size="14.00">BLOCK</text>
</g>
<!-- node0x55fa953d2630&#45;&#45;node0x55fa953d25e0 -->
<g id="edge26" class="edge">
<title>node0x55fa953d2630&#45;&#45;node0x55fa953d25e0</title>
<path fill="none" stroke="black" d="M1619.25,-432.57C1664.68,-417.19 1733.4,-393.93 1773.82,-380.25"/>
</g>
<!-- node0x55fa953d7ba0 -->
<g id="node25" class="node">
<title>node0x55fa953d7ba0</title>
<ellipse fill="none" stroke="black" cx="1457.77" cy="-278.35" rx="106.55" ry="26.74"/>
<text text-anchor="middle" x="1457.77" y="-282.15" font-family="Times,serif" font-size="14.00">IDENTIFIER_DATA</text>
<text text-anchor="middle" x="1457.77" y="-267.15" font-family="Times,serif" font-size="14.00">i</text>
</g>
<!-- node0x55fa953d7ab0&#45;&#45;node0x55fa953d7ba0 -->
<g id="edge24" class="edge">
<title>node0x55fa953d7ab0&#45;&#45;node0x55fa953d7ba0</title>
<path fill="none" stroke="black" d="M1543.3,-344.04C1527.05,-331.75 1507.06,-316.63 1490.49,-304.09"/>
</g>
<!-- node0x55fa953d7a60 -->
<g id="node26" class="node">
<title>node0x55fa953d7a60</title>
<ellipse fill="none" stroke="black" cx="1689.77" cy="-278.35" rx="106.55" ry="26.74"/>
<text text-anchor="middle" x="1689.77" y="-282.15" font-family="Times,serif" font-size="14.00">IDENTIFIER_DATA</text>
<text text-anchor="middle" x="1689.77" y="-267.15" font-family="Times,serif" font-size="14.00">__FOR_END__</text>
</g>
<!-- node0x55fa953d7ab0&#45;&#45;node0x55fa953d7a60 -->
<g id="edge25" class="edge">
<title>node0x55fa953d7ab0&#45;&#45;node0x55fa953d7a60</title>
<path fill="none" stroke="black" d="M1604.25,-344.04C1620.5,-331.75 1640.49,-316.63 1657.06,-304.09"/>
</g>
<!-- node0x55fa953d2590 -->
<g id="node28" class="node">
<title>node0x55fa953d2590</title>
<ellipse fill="none" stroke="black" cx="1911.77" cy="-278.35" rx="96.68" ry="18"/>
<text text-anchor="middle" x="1911.77" y="-274.65" font-family="Times,serif" font-size="14.00">STATEMENT_LIST</text>
</g>
<!-- node0x55fa953d25e0&#45;&#45;node0x55fa953d2590 -->
<g id="edge27" class="edge">
<title>node0x55fa953d25e0&#45;&#45;node0x55fa953d2590</title>
<path fill="none" stroke="black" d="M1825.55,-351.4C1844.19,-335.83 1872.66,-312.03 1891.73,-296.1"/>
</g>
<!-- node0x55fa953d7950 -->
<g id="node29" class="node">
<title>node0x55fa953d7950</title>
<ellipse fill="none" stroke="black" cx="1778.77" cy="-197.48" rx="105.08" ry="18"/>
<text text-anchor="middle" x="1778.77" y="-193.78" font-family="Times,serif" font-size="14.00">PRINT_STATEMENT</text>
</g>
<!-- node0x55fa953d2590&#45;&#45;node0x55fa953d7950 -->
<g id="edge28" class="edge">
<title>node0x55fa953d2590&#45;&#45;node0x55fa953d7950</title>
<path fill="none" stroke="black" d="M1884.22,-261.01C1861.54,-247.56 1829.54,-228.59 1806.75,-215.07"/>
</g>
<!-- node0x55fa953d2540 -->
<g id="node32" class="node">
<title>node0x55fa953d2540</title>
<ellipse fill="none" stroke="black" cx="2043.77" cy="-197.48" rx="141.88" ry="18"/>
<text text-anchor="middle" x="2043.77" y="-193.78" font-family="Times,serif" font-size="14.00">ASSIGNMENT_STATEMENT</text>
</g>
<!-- node0x55fa953d2590&#45;&#45;node0x55fa953d2540 -->
<g id="edge31" class="edge">
<title>node0x55fa953d2590&#45;&#45;node0x55fa953d2540</title>
<path fill="none" stroke="black" d="M1939.12,-261.01C1961.48,-247.65 1992.96,-228.84 2015.55,-215.35"/>
</g>
<!-- node0x55fa953d78b0 -->
<g id="node30" class="node">
<title>node0x55fa953d78b0</title>
<ellipse fill="none" stroke="black" cx="1578.77" cy="-116.61" rx="84.29" ry="26.74"/>
<text text-anchor="middle" x="1578.77" y="-120.41" font-family="Times,serif" font-size="14.00">STRING_DATA</text>
<text text-anchor="middle" x="1578.77" y="-105.41" font-family="Times,serif" font-size="14.00">&quot;i is now&quot;</text>
</g>
<!-- node0x55fa953d7950&#45;&#45;node0x55fa953d78b0 -->
<g id="edge29" class="edge">
<title>node0x55fa953d7950&#45;&#45;node0x55fa953d78b0</title>
<path fill="none" stroke="black" d="M1738.78,-180.71C1707.66,-168.44 1664.24,-151.31 1630.48,-138"/>
</g>
<!-- node0x55fa953d79c0 -->
<g id="node31" class="node">
<title>node0x55fa953d79c0</title>
<ellipse fill="none" stroke="black" cx="1787.77" cy="-116.61" rx="106.55" ry="26.74"/>
<text text-anchor="middle" x="1787.77" y="-120.41" font-family="Times,serif" font-size="14.00">IDENTIFIER_DATA</text>
<text text-anchor="middle" x="1787.77" y="-105.41" font-family="Times,serif" font-size="14.00">i</text>
</g>
<!-- node0x55fa953d7950&#45;&#45;node0x55fa953d79c0 -->
<g id="edge30" class="edge">
<title>node0x55fa953d7950&#45;&#45;node0x55fa953d79c0</title>
<path fill="none" stroke="black" d="M1780.73,-179.37C1781.92,-168.95 1783.46,-155.43 1784.8,-143.69"/>
</g>
<!-- node0x55fa953d24f0 -->
<g id="node33" class="node">
<title>node0x55fa953d24f0</title>
<ellipse fill="none" stroke="black" cx="2035.77" cy="-116.61" rx="106.55" ry="26.74"/>
<text text-anchor="middle" x="2035.77" y="-120.41" font-family="Times,serif" font-size="14.00">IDENTIFIER_DATA</text>
<text text-anchor="middle" x="2035.77" y="-105.41" font-family="Times,serif" font-size="14.00">i</text>
</g>
<!-- node0x55fa953d2540&#45;&#45;node0x55fa953d24f0 -->
<g id="edge32" class="edge">
<title>node0x55fa953d2540&#45;&#45;node0x55fa953d24f0</title>
<path fill="none" stroke="black" d="M2042.04,-179.37C2040.98,-168.95 2039.61,-155.43 2038.42,-143.69"/>
</g>
<!-- node0x55fa953d7bd0 -->
<g id="node34" class="node">
<title>node0x55fa953d7bd0</title>
<ellipse fill="none" stroke="black" cx="2241.77" cy="-116.61" rx="81.13" ry="26.74"/>
<text text-anchor="middle" x="2241.77" y="-120.41" font-family="Times,serif" font-size="14.00">EXPRESSION</text>
<text text-anchor="middle" x="2241.77" y="-105.41" font-family="Times,serif" font-size="14.00">+</text>
</g>
<!-- node0x55fa953d2540&#45;&#45;node0x55fa953d7bd0 -->
<g id="edge33" class="edge">
<title>node0x55fa953d2540&#45;&#45;node0x55fa953d7bd0</title>
<path fill="none" stroke="black" d="M2084.8,-180.14C2115.72,-167.82 2158.3,-150.86 2191.31,-137.71"/>
</g>
<!-- node0x55fa953d7b00 -->
<g id="node35" class="node">
<title>node0x55fa953d7b00</title>
<ellipse fill="none" stroke="black" cx="2132.77" cy="-26.87" rx="106.55" ry="26.74"/>
<text text-anchor="middle" x="2132.77" y="-30.67" font-family="Times,serif" font-size="14.00">IDENTIFIER_DATA</text>
<text text-anchor="middle" x="2132.77" y="-15.67" font-family="Times,serif" font-size="14.00">i</text>
</g>
<!-- node0x55fa953d7bd0&#45;&#45;node0x55fa953d7b00 -->
<g id="edge34" class="edge">
<title>node0x55fa953d7bd0&#45;&#45;node0x55fa953d7b00</title>
<path fill="none" stroke="black" d="M2211.7,-91.4C2196.7,-79.33 2178.59,-64.75 2163.51,-52.61"/>
</g>
<!-- node0x55fa953d7b50 -->
<g id="node36" class="node">
<title>node0x55fa953d7b50</title>
<ellipse fill="none" stroke="black" cx="2349.77" cy="-26.87" rx="92.76" ry="26.74"/>
<text text-anchor="middle" x="2349.77" y="-30.67" font-family="Times,serif" font-size="14.00">NUMBER_DATA</text>
<text text-anchor="middle" x="2349.77" y="-15.67" font-family="Times,serif" font-size="14.00">1</text>
</g>
<!-- node0x55fa953d7bd0&#45;&#45;node0x55fa953d7b50 -->
<g id="edge35" class="edge">
<title>node0x55fa953d7bd0&#45;&#45;node0x55fa953d7b50</title>
<path fill="none" stroke="black" d="M2271.57,-91.4C2286.56,-79.23 2304.67,-64.51 2319.7,-52.3"/>
</g>
<!-- node0x55fa953d7cc0 -->
<g id="node38" class="node">
<title>node0x55fa953d7cc0</title>
<ellipse fill="none" stroke="black" cx="1116.77" cy="-529.83" rx="84.29" ry="26.74"/>
<text text-anchor="middle" x="1116.77" y="-533.63" font-family="Times,serif" font-size="14.00">STRING_DATA</text>
<text text-anchor="middle" x="1116.77" y="-518.63" font-family="Times,serif" font-size="14.00">&quot;Done!&quot;</text>
</g>
<!-- node0x55fa953d7d60&#45;&#45;node0x55fa953d7cc0 -->
<g id="edge37" class="edge">
<title>node0x55fa953d7d60&#45;&#45;node0x55fa953d7cc0</title>
<path fill="none" stroke="black" d="M1104.24,-592.59C1106.36,-582.17 1109.1,-568.65 1111.48,-556.91"/>
</g>
</g>
</svg>
