<?xml version="1.0" encoding="UTF-8" standalone="no"?>
<!DOCTYPE svg PUBLIC "-//W3C//DTD SVG 1.1//EN"
 "http://www.w3.org/Graphics/SVG/1.1/DTD/svg11.dtd">
<!-- Generated by graphviz version 2.43.0 (0)
 -->
<!-- Pages: 1 -->
<svg width="1292pt" height="439pt"
 viewBox="0.00 0.00 1292.29 439.48" xmlns="http://www.w3.org/2000/svg" xmlns:xlink="http://www.w3.org/1999/xlink">
<g id="graph0" class="graph" transform="scale(1 1) rotate(0) translate(4 435.48)">
<polygon fill="white" stroke="transparent" points="-4,4 -4,-435.48 1288.29,-435.48 1288.29,4 -4,4"/>
<!-- node0x5614f585df70 -->
<g id="node1" class="node">
<title>node0x5614f585df70</title>
<ellipse fill="none" stroke="black" cx="669.15" cy="-413.48" rx="76.09" ry="18"/>
<text text-anchor="middle" x="669.15" y="-409.78" font-family="Times,serif" font-size="14.00">GLOBAL_LIST</text>
</g>
<!-- node0x5614f585ded0 -->
<g id="node2" class="node">
<title>node0x5614f585ded0</title>
<ellipse fill="none" stroke="black" cx="669.15" cy="-341.48" rx="63.89" ry="18"/>
<text text-anchor="middle" x="669.15" y="-337.78" font-family="Times,serif" font-size="14.00">FUNCTION</text>
</g>
<!-- node0x5614f585df70&#45;&#45;node0x5614f585ded0 -->
<g id="edge1" class="edge">
<title>node0x5614f585df70&#45;&#45;node0x5614f585ded0</title>
<path fill="none" stroke="black" d="M669.15,-395.18C669.15,-384.33 669.15,-370.4 669.15,-359.58"/>
</g>
<!-- node0x5614f585d350 -->
<g id="node3" class="node">
<title>node0x5614f585d350</title>
<ellipse fill="none" stroke="black" cx="447.15" cy="-260.61" rx="106.55" ry="26.74"/>
<text text-anchor="middle" x="447.15" y="-264.41" font-family="Times,serif" font-size="14.00">IDENTIFIER_DATA</text>
<text text-anchor="middle" x="447.15" y="-249.41" font-family="Times,serif" font-size="14.00">main</text>
</g>
<!-- node0x5614f585ded0&#45;&#45;node0x5614f585d350 -->
<g id="edge2" class="edge">
<title>node0x5614f585ded0&#45;&#45;node0x5614f585d350</title>
<path fill="none" stroke="black" d="M631.23,-327.01C597.18,-314.91 546.6,-296.94 507.07,-282.9"/>
</g>
<!-- node0x5614f585d3a0 -->
<g id="node4" class="node">
<title>node0x5614f585d3a0</title>
<ellipse fill="none" stroke="black" cx="669.15" cy="-260.61" rx="96.68" ry="18"/>
<text text-anchor="middle" x="669.15" y="-256.91" font-family="Times,serif" font-size="14.00">PARAMETER_LIST</text>
</g>
<!-- node0x5614f585ded0&#45;&#45;node0x5614f585d3a0 -->
<g id="edge3" class="edge">
<title>node0x5614f585ded0&#45;&#45;node0x5614f585d3a0</title>
<path fill="none" stroke="black" d="M669.15,-323.37C669.15,-310.14 669.15,-291.91 669.15,-278.69"/>
</g>
<!-- node0x5614f585de30 -->
<g id="node5" class="node">
<title>node0x5614f585de30</title>
<ellipse fill="none" stroke="black" cx="828.15" cy="-260.61" rx="44.39" ry="18"/>
<text text-anchor="middle" x="828.15" y="-256.91" font-family="Times,serif" font-size="14.00">BLOCK</text>
</g>
<!-- node0x5614f585ded0&#45;&#45;node0x5614f585de30 -->
<g id="edge4" class="edge">
<title>node0x5614f585ded0&#45;&#45;node0x5614f585de30</title>
<path fill="none" stroke="black" d="M699.43,-325.46C728.8,-310.89 772.95,-288.99 801.16,-275"/>
</g>
<!-- node0x5614f585d7c0 -->
<g id="node6" class="node">
<title>node0x5614f585d7c0</title>
<ellipse fill="none" stroke="black" cx="828.15" cy="-179.74" rx="96.68" ry="18"/>
<text text-anchor="middle" x="828.15" y="-176.04" font-family="Times,serif" font-size="14.00">STATEMENT_LIST</text>
</g>
<!-- node0x5614f585de30&#45;&#45;node0x5614f585d7c0 -->
<g id="edge5" class="edge">
<title>node0x5614f585de30&#45;&#45;node0x5614f585d7c0</title>
<path fill="none" stroke="black" d="M828.15,-242.5C828.15,-229.27 828.15,-211.04 828.15,-197.82"/>
</g>
<!-- node0x5614f585d4b0 -->
<g id="node7" class="node">
<title>node0x5614f585d4b0</title>
<ellipse fill="none" stroke="black" cx="363.15" cy="-107.74" rx="105.08" ry="18"/>
<text text-anchor="middle" x="363.15" y="-104.04" font-family="Times,serif" font-size="14.00">PRINT_STATEMENT</text>
</g>
<!-- node0x5614f585d7c0&#45;&#45;node0x5614f585d4b0 -->
<g id="edge6" class="edge">
<title>node0x5614f585d7c0&#45;&#45;node0x5614f585d4b0</title>
<path fill="none" stroke="black" d="M755.49,-167.8C669.54,-154.86 527.09,-133.42 439.54,-120.24"/>
</g>
<!-- node0x5614f585d8d0 -->
<g id="node11" class="node">
<title>node0x5614f585d8d0</title>
<ellipse fill="none" stroke="black" cx="828.15" cy="-107.74" rx="105.08" ry="18"/>
<text text-anchor="middle" x="828.15" y="-104.04" font-family="Times,serif" font-size="14.00">PRINT_STATEMENT</text>
</g>
<!-- node0x5614f585d7c0&#45;&#45;node0x5614f585d8d0 -->
<g id="edge10" class="edge">
<title>node0x5614f585d7c0&#45;&#45;node0x5614f585d8d0</title>
<path fill="none" stroke="black" d="M828.15,-161.44C828.15,-150.59 828.15,-136.66 828.15,-125.84"/>
</g>
<!-- node0x5614f585dcf0 -->
<g id="node15" class="node">
<title>node0x5614f585dcf0</title>
<ellipse fill="none" stroke="black" cx="1128.15" cy="-107.74" rx="105.08" ry="18"/>
<text text-anchor="middle" x="1128.15" y="-104.04" font-family="Times,serif" font-size="14.00">PRINT_STATEMENT</text>
</g>
<!-- node0x5614f585d7c0&#45;&#45;node0x5614f585dcf0 -->
<g id="edge14" class="edge">
<title>node0x5614f585d7c0&#45;&#45;node0x5614f585dcf0</title>
<path fill="none" stroke="black" d="M885.99,-165.24C938.52,-152.99 1015.66,-134.99 1068.68,-122.61"/>
</g>
<!-- node0x5614f585d410 -->
<g id="node8" class="node">
<title>node0x5614f585d410</title>
<ellipse fill="none" stroke="black" cx="84.15" cy="-26.87" rx="84.29" ry="26.74"/>
<text text-anchor="middle" x="84.15" y="-30.67" font-family="Times,serif" font-size="14.00">STRING_DATA</text>
<text text-anchor="middle" x="84.15" y="-15.67" font-family="Times,serif" font-size="14.00">&quot;Hello&quot;</text>
</g>
<!-- node0x5614f585d4b0&#45;&#45;node0x5614f585d410 -->
<g id="edge7" class="edge">
<title>node0x5614f585d4b0&#45;&#45;node0x5614f585d410</title>
<path fill="none" stroke="black" d="M311,-92C264.15,-78.76 195.32,-59.3 145.77,-45.29"/>
</g>
<!-- node0x5614f585d520 -->
<g id="node9" class="node">
<title>node0x5614f585d520</title>
<ellipse fill="none" stroke="black" cx="270.15" cy="-26.87" rx="84.29" ry="26.74"/>
<text text-anchor="middle" x="270.15" y="-30.67" font-family="Times,serif" font-size="14.00">STRING_DATA</text>
<text text-anchor="middle" x="270.15" y="-15.67" font-family="Times,serif" font-size="14.00">&quot; &quot;</text>
</g>
<!-- node0x5614f585d4b0&#45;&#45;node0x5614f585d520 -->
<g id="edge8" class="edge">
<title>node0x5614f585d4b0&#45;&#45;node0x5614f585d520</title>
<path fill="none" stroke="black" d="M343.42,-90.01C330.52,-79.07 313.44,-64.59 299.02,-52.36"/>
</g>
<!-- node0x5614f585d630 -->
<g id="node10" class="node">
<title>node0x5614f585d630</title>
<ellipse fill="none" stroke="black" cx="456.15" cy="-26.87" rx="84.29" ry="26.74"/>
<text text-anchor="middle" x="456.15" y="-30.67" font-family="Times,serif" font-size="14.00">STRING_DATA</text>
<text text-anchor="middle" x="456.15" y="-15.67" font-family="Times,serif" font-size="14.00">&quot;World&quot;</text>
</g>
<!-- node0x5614f585d4b0&#45;&#45;node0x5614f585d630 -->
<g id="edge9" class="edge">
<title>node0x5614f585d4b0&#45;&#45;node0x5614f585d630</title>
<path fill="none" stroke="black" d="M382.87,-90.01C395.77,-79.07 412.85,-64.59 427.27,-52.36"/>
</g>
<!-- node0x5614f585d830 -->
<g id="node12" class="node">
<title>node0x5614f585d830</title>
<ellipse fill="none" stroke="black" cx="642.15" cy="-26.87" rx="84.29" ry="26.74"/>
<text text-anchor="middle" x="642.15" y="-30.67" font-family="Times,serif" font-size="14.00">STRING_DATA</text>
<text text-anchor="middle" x="642.15" y="-15.67" font-family="Times,serif" font-size="14.00">&quot;Hallo&quot;</text>
</g>
<!-- node0x5614f585d8d0&#45;&#45;node0x5614f585d830 -->
<g id="edge11" class="edge">
<title>node0x5614f585d8d0&#45;&#45;node0x5614f585d830</title>
<path fill="none" stroke="black" d="M790.51,-90.78C761.95,-78.67 722.45,-61.92 691.38,-48.75"/>
</g>
<!-- node0x5614f585d940 -->
<g id="node13" class="node">
<title>node0x5614f585d940</title>
<ellipse fill="none" stroke="black" cx="828.15" cy="-26.87" rx="84.29" ry="26.74"/>
<text text-anchor="middle" x="828.15" y="-30.67" font-family="Times,serif" font-size="14.00">STRING_DATA</text>
<text text-anchor="middle" x="828.15" y="-15.67" font-family="Times,serif" font-size="14.00">&quot; &quot;</text>
</g>
<!-- node0x5614f585d8d0&#45;&#45;node0x5614f585d940 -->
<g id="edge12" class="edge">
<title>node0x5614f585d8d0&#45;&#45;node0x5614f585d940</title>
<path fill="none" stroke="black" d="M828.15,-89.63C828.15,-79.21 828.15,-65.69 828.15,-53.95"/>
</g>
<!-- node0x5614f585da50 -->
<g id="node14" class="node">
<title>node0x5614f585da50</title>
<ellipse fill="none" stroke="black" cx="1014.15" cy="-26.87" rx="84.29" ry="26.74"/>
<text text-anchor="middle" x="1014.15" y="-30.67" font-family="Times,serif" font-size="14.00">STRING_DATA</text>
<text text-anchor="middle" x="1014.15" y="-15.67" font-family="Times,serif" font-size="14.00">&quot;Verden&quot;</text>
</g>
<!-- node0x5614f585d8d0&#45;&#45;node0x5614f585da50 -->
<g id="edge13" class="edge">
<title>node0x5614f585d8d0&#45;&#45;node0x5614f585da50</title>
<path fill="none" stroke="black" d="M865.79,-90.78C894.34,-78.67 933.84,-61.92 964.91,-48.75"/>
</g>
<!-- node0x5614f585dc50 -->
<g id="node16" class="node">
<title>node0x5614f585dc50</title>
<ellipse fill="none" stroke="black" cx="1200.15" cy="-26.87" rx="84.29" ry="26.74"/>
<text text-anchor="middle" x="1200.15" y="-30.67" font-family="Times,serif" font-size="14.00">STRING_DATA</text>
<text text-anchor="middle" x="1200.15" y="-15.67" font-family="Times,serif" font-size="14.00">&quot;Goodbye\n&quot;</text>
</g>
<!-- node0x5614f585dcf0&#45;&#45;node0x5614f585dc50 -->
<g id="edge15" class="edge">
<title>node0x5614f585dcf0&#45;&#45;node0x5614f585dc50</title>
<path fill="none" stroke="black" d="M1143.77,-89.63C1153.53,-78.93 1166.27,-64.98 1177.17,-53.04"/>
</g>
</g>
</svg>
