<?xml version="1.0" encoding="UTF-8" standalone="no"?>
<!DOCTYPE svg PUBLIC "-//W3C//DTD SVG 1.1//EN"
 "http://www.w3.org/Graphics/SVG/1.1/DTD/svg11.dtd">
<!-- Generated by graphviz version 2.43.0 (0)
 -->
<!-- Pages: 1 -->
<svg width="3713pt" height="637pt"
 viewBox="0.00 0.00 3712.55 636.70" xmlns="http://www.w3.org/2000/svg" xmlns:xlink="http://www.w3.org/1999/xlink">
<g id="graph0" class="graph" transform="scale(1 1) rotate(0) translate(4 632.7)">
<polygon fill="white" stroke="transparent" points="-4,4 -4,-632.7 3708.55,-632.7 3708.55,4 -4,4"/>
<!-- node0x5651b8be8550 -->
<g id="node1" class="node">
<title>node0x5651b8be8550</title>
<ellipse fill="none" stroke="black" cx="1688.77" cy="-610.7" rx="76.09" ry="18"/>
<text text-anchor="middle" x="1688.77" y="-607" font-family="Times,serif" font-size="14.00">GLOBAL_LIST</text>
</g>
<!-- node0x5651b8be83a0 -->
<g id="node2" class="node">
<title>node0x5651b8be83a0</title>
<ellipse fill="none" stroke="black" cx="1131.77" cy="-538.7" rx="81.49" ry="18"/>
<text text-anchor="middle" x="1131.77" y="-535" font-family="Times,serif" font-size="14.00">DECLARATION</text>
</g>
<!-- node0x5651b8be8550&#45;&#45;node0x5651b8be83a0 -->
<g id="edge1" class="edge">
<title>node0x5651b8be8550&#45;&#45;node0x5651b8be83a0</title>
<path fill="none" stroke="black" d="M1623.24,-601.46C1517.13,-588.13 1308.69,-561.93 1200.54,-548.34"/>
</g>
<!-- node0x5651b8be86d0 -->
<g id="node5" class="node">
<title>node0x5651b8be86d0</title>
<ellipse fill="none" stroke="black" cx="1580.77" cy="-538.7" rx="117.78" ry="18"/>
<text text-anchor="middle" x="1580.77" y="-535" font-family="Times,serif" font-size="14.00">ARRAY_DECLARATION</text>
</g>
<!-- node0x5651b8be8550&#45;&#45;node0x5651b8be86d0 -->
<g id="edge4" class="edge">
<title>node0x5651b8be8550&#45;&#45;node0x5651b8be86d0</title>
<path fill="none" stroke="black" d="M1664,-593.64C1646.81,-582.5 1623.97,-567.7 1606.56,-556.42"/>
</g>
<!-- node0x5651b8bea150 -->
<g id="node8" class="node">
<title>node0x5651b8bea150</title>
<ellipse fill="none" stroke="black" cx="1908.77" cy="-538.7" rx="63.89" ry="18"/>
<text text-anchor="middle" x="1908.77" y="-535" font-family="Times,serif" font-size="14.00">FUNCTION</text>
</g>
<!-- node0x5651b8be8550&#45;&#45;node0x5651b8bea150 -->
<g id="edge7" class="edge">
<title>node0x5651b8be8550&#45;&#45;node0x5651b8bea150</title>
<path fill="none" stroke="black" d="M1732.24,-595.87C1771.68,-583.32 1829.41,-564.95 1868,-552.67"/>
</g>
<!-- node0x5651b8bea800 -->
<g id="node48" class="node">
<title>node0x5651b8bea800</title>
<ellipse fill="none" stroke="black" cx="2531.77" cy="-538.7" rx="63.89" ry="18"/>
<text text-anchor="middle" x="2531.77" y="-535" font-family="Times,serif" font-size="14.00">FUNCTION</text>
</g>
<!-- node0x5651b8be8550&#45;&#45;node0x5651b8bea800 -->
<g id="edge47" class="edge">
<title>node0x5651b8be8550&#45;&#45;node0x5651b8bea800</title>
<path fill="none" stroke="black" d="M1759.2,-603.85C1921.54,-590.37 2319.74,-557.31 2471.6,-544.7"/>
</g>
<!-- node0x5651b8be8350 -->
<g id="node3" class="node">
<title>node0x5651b8be8350</title>
<ellipse fill="none" stroke="black" cx="899.77" cy="-457.83" rx="106.55" ry="26.74"/>
<text text-anchor="middle" x="899.77" y="-461.63" font-family="Times,serif" font-size="14.00">IDENTIFIER_DATA</text>
<text text-anchor="middle" x="899.77" y="-446.63" font-family="Times,serif" font-size="14.00">a</text>
</g>
<!-- node0x5651b8be83a0&#45;&#45;node0x5651b8be8350 -->
<g id="edge2" class="edge">
<title>node0x5651b8be83a0&#45;&#45;node0x5651b8be8350</title>
<path fill="none" stroke="black" d="M1089.49,-523.33C1053.68,-511.15 1001.86,-493.54 961.43,-479.79"/>
</g>
<!-- node0x5651b8be8410 -->
<g id="node4" class="node">
<title>node0x5651b8be8410</title>
<ellipse fill="none" stroke="black" cx="1131.77" cy="-457.83" rx="106.55" ry="26.74"/>
<text text-anchor="middle" x="1131.77" y="-461.63" font-family="Times,serif" font-size="14.00">IDENTIFIER_DATA</text>
<text text-anchor="middle" x="1131.77" y="-446.63" font-family="Times,serif" font-size="14.00">b</text>
</g>
<!-- node0x5651b8be83a0&#45;&#45;node0x5651b8be8410 -->
<g id="edge3" class="edge">
<title>node0x5651b8be83a0&#45;&#45;node0x5651b8be8410</title>
<path fill="none" stroke="black" d="M1131.77,-520.59C1131.77,-510.17 1131.77,-496.65 1131.77,-484.91"/>
</g>
<!-- node0x5651b8be85c0 -->
<g id="node6" class="node">
<title>node0x5651b8be85c0</title>
<ellipse fill="none" stroke="black" cx="1363.77" cy="-457.83" rx="106.55" ry="26.74"/>
<text text-anchor="middle" x="1363.77" y="-461.63" font-family="Times,serif" font-size="14.00">IDENTIFIER_DATA</text>
<text text-anchor="middle" x="1363.77" y="-446.63" font-family="Times,serif" font-size="14.00">arr</text>
</g>
<!-- node0x5651b8be86d0&#45;&#45;node0x5651b8be85c0 -->
<g id="edge5" class="edge">
<title>node0x5651b8be86d0&#45;&#45;node0x5651b8be85c0</title>
<path fill="none" stroke="black" d="M1537.38,-521.93C1504.48,-509.97 1458.91,-493.41 1422.71,-480.25"/>
</g>
<!-- node0x5651b8be8630 -->
<g id="node7" class="node">
<title>node0x5651b8be8630</title>
<ellipse fill="none" stroke="black" cx="1580.77" cy="-457.83" rx="92.76" ry="26.74"/>
<text text-anchor="middle" x="1580.77" y="-461.63" font-family="Times,serif" font-size="14.00">NUMBER_DATA</text>
<text text-anchor="middle" x="1580.77" y="-446.63" font-family="Times,serif" font-size="14.00">10</text>
</g>
<!-- node0x5651b8be86d0&#45;&#45;node0x5651b8be8630 -->
<g id="edge6" class="edge">
<title>node0x5651b8be86d0&#45;&#45;node0x5651b8be8630</title>
<path fill="none" stroke="black" d="M1580.77,-520.59C1580.77,-510.17 1580.77,-496.65 1580.77,-484.91"/>
</g>
<!-- node0x5651b8be8830 -->
<g id="node9" class="node">
<title>node0x5651b8be8830</title>
<ellipse fill="none" stroke="black" cx="1797.77" cy="-457.83" rx="106.55" ry="26.74"/>
<text text-anchor="middle" x="1797.77" y="-461.63" font-family="Times,serif" font-size="14.00">IDENTIFIER_DATA</text>
<text text-anchor="middle" x="1797.77" y="-446.63" font-family="Times,serif" font-size="14.00">main</text>
</g>
<!-- node0x5651b8bea150&#45;&#45;node0x5651b8be8830 -->
<g id="edge8" class="edge">
<title>node0x5651b8bea150&#45;&#45;node0x5651b8be8830</title>
<path fill="none" stroke="black" d="M1886.31,-521.74C1870.85,-510.76 1850.02,-495.95 1832.45,-483.47"/>
</g>
<!-- node0x5651b8be8880 -->
<g id="node10" class="node">
<title>node0x5651b8be8880</title>
<ellipse fill="none" stroke="black" cx="2019.77" cy="-457.83" rx="96.68" ry="18"/>
<text text-anchor="middle" x="2019.77" y="-454.13" font-family="Times,serif" font-size="14.00">PARAMETER_LIST</text>
</g>
<!-- node0x5651b8bea150&#45;&#45;node0x5651b8be8880 -->
<g id="edge9" class="edge">
<title>node0x5651b8bea150&#45;&#45;node0x5651b8be8880</title>
<path fill="none" stroke="black" d="M1931.24,-521.74C1950.24,-508.24 1977.37,-488.96 1996.58,-475.31"/>
</g>
<!-- node0x5651b8bea0b0 -->
<g id="node11" class="node">
<title>node0x5651b8bea0b0</title>
<ellipse fill="none" stroke="black" cx="2178.77" cy="-457.83" rx="44.39" ry="18"/>
<text text-anchor="middle" x="2178.77" y="-454.13" font-family="Times,serif" font-size="14.00">BLOCK</text>
</g>
<!-- node0x5651b8bea150&#45;&#45;node0x5651b8bea0b0 -->
<g id="edge10" class="edge">
<title>node0x5651b8bea150&#45;&#45;node0x5651b8bea0b0</title>
<path fill="none" stroke="black" d="M1960.99,-528.22C2005.53,-519.37 2070.88,-504.54 2125.77,-484.7 2135.02,-481.36 2144.78,-476.89 2153.38,-472.6"/>
</g>
<!-- node0x5651b8be8c20 -->
<g id="node12" class="node">
<title>node0x5651b8be8c20</title>
<ellipse fill="none" stroke="black" cx="1150.77" cy="-368.09" rx="106.68" ry="18"/>
<text text-anchor="middle" x="1150.77" y="-364.39" font-family="Times,serif" font-size="14.00">DECLARATION_LIST</text>
</g>
<!-- node0x5651b8bea0b0&#45;&#45;node0x5651b8be8c20 -->
<g id="edge11" class="edge">
<title>node0x5651b8bea0b0&#45;&#45;node0x5651b8be8c20</title>
<path fill="none" stroke="black" d="M2154.74,-442.64C2145.92,-438.1 2135.67,-433.58 2125.77,-430.96 1964.27,-388.22 1473.95,-374.62 1256.53,-370.62"/>
</g>
<!-- node0x5651b8be9150 -->
<g id="node21" class="node">
<title>node0x5651b8be9150</title>
<ellipse fill="none" stroke="black" cx="2178.77" cy="-368.09" rx="96.68" ry="18"/>
<text text-anchor="middle" x="2178.77" y="-364.39" font-family="Times,serif" font-size="14.00">STATEMENT_LIST</text>
</g>
<!-- node0x5651b8bea0b0&#45;&#45;node0x5651b8be9150 -->
<g id="edge20" class="edge">
<title>node0x5651b8bea0b0&#45;&#45;node0x5651b8be9150</title>
<path fill="none" stroke="black" d="M2178.77,-439.5C2178.77,-424.01 2178.77,-401.47 2178.77,-386.09"/>
</g>
<!-- node0x5651b8be8940 -->
<g id="node13" class="node">
<title>node0x5651b8be8940</title>
<ellipse fill="none" stroke="black" cx="570.77" cy="-287.22" rx="81.49" ry="18"/>
<text text-anchor="middle" x="570.77" y="-283.52" font-family="Times,serif" font-size="14.00">DECLARATION</text>
</g>
<!-- node0x5651b8be8c20&#45;&#45;node0x5651b8be8940 -->
<g id="edge12" class="edge">
<title>node0x5651b8be8c20&#45;&#45;node0x5651b8be8940</title>
<path fill="none" stroke="black" d="M1070.43,-356.17C955.36,-340.52 745.66,-312 638.2,-297.39"/>
</g>
<!-- node0x5651b8be8ce0 -->
<g id="node18" class="node">
<title>node0x5651b8be8ce0</title>
<ellipse fill="none" stroke="black" cx="1150.77" cy="-287.22" rx="81.49" ry="18"/>
<text text-anchor="middle" x="1150.77" y="-283.52" font-family="Times,serif" font-size="14.00">DECLARATION</text>
</g>
<!-- node0x5651b8be8c20&#45;&#45;node0x5651b8be8ce0 -->
<g id="edge17" class="edge">
<title>node0x5651b8be8c20&#45;&#45;node0x5651b8be8ce0</title>
<path fill="none" stroke="black" d="M1150.77,-349.98C1150.77,-336.75 1150.77,-318.52 1150.77,-305.3"/>
</g>
<!-- node0x5651b8be88f0 -->
<g id="node14" class="node">
<title>node0x5651b8be88f0</title>
<ellipse fill="none" stroke="black" cx="106.77" cy="-206.35" rx="106.55" ry="26.74"/>
<text text-anchor="middle" x="106.77" y="-210.15" font-family="Times,serif" font-size="14.00">IDENTIFIER_DATA</text>
<text text-anchor="middle" x="106.77" y="-195.15" font-family="Times,serif" font-size="14.00">A</text>
</g>
<!-- node0x5651b8be8940&#45;&#45;node0x5651b8be88f0 -->
<g id="edge13" class="edge">
<title>node0x5651b8be8940&#45;&#45;node0x5651b8be88f0</title>
<path fill="none" stroke="black" d="M502.85,-277.27C432.54,-267.69 319.63,-251.37 222.77,-233.22 210,-230.83 196.48,-228.04 183.37,-225.21"/>
</g>
<!-- node0x5651b8be89b0 -->
<g id="node15" class="node">
<title>node0x5651b8be89b0</title>
<ellipse fill="none" stroke="black" cx="338.77" cy="-206.35" rx="106.55" ry="26.74"/>
<text text-anchor="middle" x="338.77" y="-210.15" font-family="Times,serif" font-size="14.00">IDENTIFIER_DATA</text>
<text text-anchor="middle" x="338.77" y="-195.15" font-family="Times,serif" font-size="14.00">B</text>
</g>
<!-- node0x5651b8be8940&#45;&#45;node0x5651b8be89b0 -->
<g id="edge14" class="edge">
<title>node0x5651b8be8940&#45;&#45;node0x5651b8be89b0</title>
<path fill="none" stroke="black" d="M528.49,-271.85C492.68,-259.67 440.86,-242.06 400.43,-228.31"/>
</g>
<!-- node0x5651b8be8a70 -->
<g id="node16" class="node">
<title>node0x5651b8be8a70</title>
<ellipse fill="none" stroke="black" cx="570.77" cy="-206.35" rx="106.55" ry="26.74"/>
<text text-anchor="middle" x="570.77" y="-210.15" font-family="Times,serif" font-size="14.00">IDENTIFIER_DATA</text>
<text text-anchor="middle" x="570.77" y="-195.15" font-family="Times,serif" font-size="14.00">C</text>
</g>
<!-- node0x5651b8be8940&#45;&#45;node0x5651b8be8a70 -->
<g id="edge15" class="edge">
<title>node0x5651b8be8940&#45;&#45;node0x5651b8be8a70</title>
<path fill="none" stroke="black" d="M570.77,-269.11C570.77,-258.69 570.77,-245.17 570.77,-233.43"/>
</g>
<!-- node0x5651b8be8b30 -->
<g id="node17" class="node">
<title>node0x5651b8be8b30</title>
<ellipse fill="none" stroke="black" cx="802.77" cy="-206.35" rx="106.55" ry="26.74"/>
<text text-anchor="middle" x="802.77" y="-210.15" font-family="Times,serif" font-size="14.00">IDENTIFIER_DATA</text>
<text text-anchor="middle" x="802.77" y="-195.15" font-family="Times,serif" font-size="14.00">D</text>
</g>
<!-- node0x5651b8be8940&#45;&#45;node0x5651b8be8b30 -->
<g id="edge16" class="edge">
<title>node0x5651b8be8940&#45;&#45;node0x5651b8be8b30</title>
<path fill="none" stroke="black" d="M613.06,-271.85C648.87,-259.67 700.68,-242.06 741.12,-228.31"/>
</g>
<!-- node0x5651b8be8c90 -->
<g id="node19" class="node">
<title>node0x5651b8be8c90</title>
<ellipse fill="none" stroke="black" cx="1034.77" cy="-206.35" rx="106.55" ry="26.74"/>
<text text-anchor="middle" x="1034.77" y="-210.15" font-family="Times,serif" font-size="14.00">IDENTIFIER_DATA</text>
<text text-anchor="middle" x="1034.77" y="-195.15" font-family="Times,serif" font-size="14.00">X</text>
</g>
<!-- node0x5651b8be8ce0&#45;&#45;node0x5651b8be8c90 -->
<g id="edge18" class="edge">
<title>node0x5651b8be8ce0&#45;&#45;node0x5651b8be8c90</title>
<path fill="none" stroke="black" d="M1126.74,-269.88C1110.55,-258.87 1088.9,-244.15 1070.68,-231.76"/>
</g>
<!-- node0x5651b8be8d50 -->
<g id="node20" class="node">
<title>node0x5651b8be8d50</title>
<ellipse fill="none" stroke="black" cx="1266.77" cy="-206.35" rx="106.55" ry="26.74"/>
<text text-anchor="middle" x="1266.77" y="-210.15" font-family="Times,serif" font-size="14.00">IDENTIFIER_DATA</text>
<text text-anchor="middle" x="1266.77" y="-195.15" font-family="Times,serif" font-size="14.00">Y</text>
</g>
<!-- node0x5651b8be8ce0&#45;&#45;node0x5651b8be8d50 -->
<g id="edge19" class="edge">
<title>node0x5651b8be8ce0&#45;&#45;node0x5651b8be8d50</title>
<path fill="none" stroke="black" d="M1174.81,-269.88C1191,-258.87 1212.65,-244.15 1230.87,-231.76"/>
</g>
<!-- node0x5651b8be8f50 -->
<g id="node22" class="node">
<title>node0x5651b8be8f50</title>
<ellipse fill="none" stroke="black" cx="1661.77" cy="-287.22" rx="105.08" ry="18"/>
<text text-anchor="middle" x="1661.77" y="-283.52" font-family="Times,serif" font-size="14.00">PRINT_STATEMENT</text>
</g>
<!-- node0x5651b8be9150&#45;&#45;node0x5651b8be8f50 -->
<g id="edge21" class="edge">
<title>node0x5651b8be9150&#45;&#45;node0x5651b8be8f50</title>
<path fill="none" stroke="black" d="M2106.61,-356.08C2009.29,-341.23 1836.75,-314.91 1737.58,-299.78"/>
</g>
<!-- node0x5651b8be9530 -->
<g id="node25" class="node">
<title>node0x5651b8be9530</title>
<ellipse fill="none" stroke="black" cx="2056.77" cy="-287.22" rx="141.88" ry="18"/>
<text text-anchor="middle" x="2056.77" y="-283.52" font-family="Times,serif" font-size="14.00">ASSIGNMENT_STATEMENT</text>
</g>
<!-- node0x5651b8be9150&#45;&#45;node0x5651b8be9530 -->
<g id="edge24" class="edge">
<title>node0x5651b8be9150&#45;&#45;node0x5651b8be9530</title>
<path fill="none" stroke="black" d="M2153.2,-350.56C2132.52,-337.19 2103.52,-318.44 2082.73,-305"/>
</g>
<!-- node0x5651b8be9b10 -->
<g id="node32" class="node">
<title>node0x5651b8be9b10</title>
<ellipse fill="none" stroke="black" cx="2301.77" cy="-287.22" rx="85.29" ry="18"/>
<text text-anchor="middle" x="2301.77" y="-283.52" font-family="Times,serif" font-size="14.00">IF_STATEMENT</text>
</g>
<!-- node0x5651b8be9150&#45;&#45;node0x5651b8be9b10 -->
<g id="edge31" class="edge">
<title>node0x5651b8be9150&#45;&#45;node0x5651b8be9b10</title>
<path fill="none" stroke="black" d="M2204.56,-350.56C2225.69,-337.01 2255.44,-317.93 2276.44,-304.46"/>
</g>
<!-- node0x5651b8be9fc0 -->
<g id="node41" class="node">
<title>node0x5651b8be9fc0</title>
<ellipse fill="none" stroke="black" cx="2776.77" cy="-287.22" rx="141.88" ry="18"/>
<text text-anchor="middle" x="2776.77" y="-283.52" font-family="Times,serif" font-size="14.00">ASSIGNMENT_STATEMENT</text>
</g>
<!-- node0x5651b8be9150&#45;&#45;node0x5651b8be9fc0 -->
<g id="edge40" class="edge">
<title>node0x5651b8be9150&#45;&#45;node0x5651b8be9fc0</title>
<path fill="none" stroke="black" d="M2254.12,-356.72C2288.99,-351.95 2330.99,-346.25 2368.77,-341.22 2475.51,-327.02 2598.02,-311.17 2680.71,-300.53"/>
</g>
<!-- node0x5651b8be8eb0 -->
<g id="node23" class="node">
<title>node0x5651b8be8eb0</title>
<ellipse fill="none" stroke="black" cx="1475.77" cy="-206.35" rx="84.29" ry="26.74"/>
<text text-anchor="middle" x="1475.77" y="-210.15" font-family="Times,serif" font-size="14.00">STRING_DATA</text>
<text text-anchor="middle" x="1475.77" y="-195.15" font-family="Times,serif" font-size="14.00">&quot;Hello&quot;</text>
</g>
<!-- node0x5651b8be8f50&#45;&#45;node0x5651b8be8eb0 -->
<g id="edge22" class="edge">
<title>node0x5651b8be8f50&#45;&#45;node0x5651b8be8eb0</title>
<path fill="none" stroke="black" d="M1624.13,-270.26C1595.58,-258.15 1556.08,-241.4 1525.01,-228.23"/>
</g>
<!-- node0x5651b8be8fc0 -->
<g id="node24" class="node">
<title>node0x5651b8be8fc0</title>
<ellipse fill="none" stroke="black" cx="1661.77" cy="-206.35" rx="84.29" ry="26.74"/>
<text text-anchor="middle" x="1661.77" y="-210.15" font-family="Times,serif" font-size="14.00">STRING_DATA</text>
<text text-anchor="middle" x="1661.77" y="-195.15" font-family="Times,serif" font-size="14.00">&quot;World&quot;</text>
</g>
<!-- node0x5651b8be8f50&#45;&#45;node0x5651b8be8fc0 -->
<g id="edge23" class="edge">
<title>node0x5651b8be8f50&#45;&#45;node0x5651b8be8fc0</title>
<path fill="none" stroke="black" d="M1661.77,-269.11C1661.77,-258.69 1661.77,-245.17 1661.77,-233.43"/>
</g>
<!-- node0x5651b8be91c0 -->
<g id="node26" class="node">
<title>node0x5651b8be91c0</title>
<ellipse fill="none" stroke="black" cx="1870.77" cy="-206.35" rx="106.55" ry="26.74"/>
<text text-anchor="middle" x="1870.77" y="-210.15" font-family="Times,serif" font-size="14.00">IDENTIFIER_DATA</text>
<text text-anchor="middle" x="1870.77" y="-195.15" font-family="Times,serif" font-size="14.00">A</text>
</g>
<!-- node0x5651b8be9530&#45;&#45;node0x5651b8be91c0 -->
<g id="edge25" class="edge">
<title>node0x5651b8be9530&#45;&#45;node0x5651b8be91c0</title>
<path fill="none" stroke="black" d="M2018.23,-269.88C1990.89,-258.28 1953.84,-242.57 1923.72,-229.8"/>
</g>
<!-- node0x5651b8be94e0 -->
<g id="node27" class="node">
<title>node0x5651b8be94e0</title>
<ellipse fill="none" stroke="black" cx="2076.77" cy="-206.35" rx="81.13" ry="26.74"/>
<text text-anchor="middle" x="2076.77" y="-210.15" font-family="Times,serif" font-size="14.00">EXPRESSION</text>
<text text-anchor="middle" x="2076.77" y="-195.15" font-family="Times,serif" font-size="14.00">+</text>
</g>
<!-- node0x5651b8be9530&#45;&#45;node0x5651b8be94e0 -->
<g id="edge26" class="edge">
<title>node0x5651b8be9530&#45;&#45;node0x5651b8be94e0</title>
<path fill="none" stroke="black" d="M2061.11,-269.11C2063.76,-258.69 2067.18,-245.17 2070.16,-233.43"/>
</g>
<!-- node0x5651b8be93b0 -->
<g id="node28" class="node">
<title>node0x5651b8be93b0</title>
<ellipse fill="none" stroke="black" cx="1611.77" cy="-116.61" rx="81.13" ry="26.74"/>
<text text-anchor="middle" x="1611.77" y="-120.41" font-family="Times,serif" font-size="14.00">EXPRESSION</text>
<text text-anchor="middle" x="1611.77" y="-105.41" font-family="Times,serif" font-size="14.00">+</text>
</g>
<!-- node0x5651b8be94e0&#45;&#45;node0x5651b8be93b0 -->
<g id="edge27" class="edge">
<title>node0x5651b8be94e0&#45;&#45;node0x5651b8be93b0</title>
<path fill="none" stroke="black" d="M2019,-187.32C2008.36,-184.41 1997.28,-181.64 1986.77,-179.48 1861.72,-153.77 1826.83,-169.19 1701.77,-143.48 1691.26,-141.32 1680.19,-138.55 1669.54,-135.64"/>
</g>
<!-- node0x5651b8be9420 -->
<g id="node31" class="node">
<title>node0x5651b8be9420</title>
<ellipse fill="none" stroke="black" cx="1817.77" cy="-116.61" rx="106.55" ry="26.74"/>
<text text-anchor="middle" x="1817.77" y="-120.41" font-family="Times,serif" font-size="14.00">IDENTIFIER_DATA</text>
<text text-anchor="middle" x="1817.77" y="-105.41" font-family="Times,serif" font-size="14.00">D</text>
</g>
<!-- node0x5651b8be94e0&#45;&#45;node0x5651b8be9420 -->
<g id="edge30" class="edge">
<title>node0x5651b8be94e0&#45;&#45;node0x5651b8be9420</title>
<path fill="none" stroke="black" d="M2021.21,-186.53C1979.59,-172.43 1922.65,-153.14 1879.59,-138.55"/>
</g>
<!-- node0x5651b8be9230 -->
<g id="node29" class="node">
<title>node0x5651b8be9230</title>
<ellipse fill="none" stroke="black" cx="1495.77" cy="-26.87" rx="106.55" ry="26.74"/>
<text text-anchor="middle" x="1495.77" y="-30.67" font-family="Times,serif" font-size="14.00">IDENTIFIER_DATA</text>
<text text-anchor="middle" x="1495.77" y="-15.67" font-family="Times,serif" font-size="14.00">B</text>
</g>
<!-- node0x5651b8be93b0&#45;&#45;node0x5651b8be9230 -->
<g id="edge28" class="edge">
<title>node0x5651b8be93b0&#45;&#45;node0x5651b8be9230</title>
<path fill="none" stroke="black" d="M1580.08,-91.63C1564.11,-79.56 1544.77,-64.93 1528.65,-52.73"/>
</g>
<!-- node0x5651b8be92f0 -->
<g id="node30" class="node">
<title>node0x5651b8be92f0</title>
<ellipse fill="none" stroke="black" cx="1727.77" cy="-26.87" rx="106.55" ry="26.74"/>
<text text-anchor="middle" x="1727.77" y="-30.67" font-family="Times,serif" font-size="14.00">IDENTIFIER_DATA</text>
<text text-anchor="middle" x="1727.77" y="-15.67" font-family="Times,serif" font-size="14.00">C</text>
</g>
<!-- node0x5651b8be93b0&#45;&#45;node0x5651b8be92f0 -->
<g id="edge29" class="edge">
<title>node0x5651b8be93b0&#45;&#45;node0x5651b8be92f0</title>
<path fill="none" stroke="black" d="M1643.47,-91.63C1659.44,-79.56 1678.77,-64.93 1694.9,-52.73"/>
</g>
<!-- node0x5651b8be97c0 -->
<g id="node33" class="node">
<title>node0x5651b8be97c0</title>
<ellipse fill="none" stroke="black" cx="2281.77" cy="-206.35" rx="65.52" ry="26.74"/>
<text text-anchor="middle" x="2281.77" y="-210.15" font-family="Times,serif" font-size="14.00">RELATION</text>
<text text-anchor="middle" x="2281.77" y="-195.15" font-family="Times,serif" font-size="14.00">&lt;</text>
</g>
<!-- node0x5651b8be9b10&#45;&#45;node0x5651b8be97c0 -->
<g id="edge32" class="edge">
<title>node0x5651b8be9b10&#45;&#45;node0x5651b8be97c0</title>
<path fill="none" stroke="black" d="M2297.43,-269.11C2294.77,-258.6 2291.3,-244.93 2288.31,-233.13"/>
</g>
<!-- node0x5651b8be9a70 -->
<g id="node36" class="node">
<title>node0x5651b8be9a70</title>
<ellipse fill="none" stroke="black" cx="2510.77" cy="-206.35" rx="141.88" ry="18"/>
<text text-anchor="middle" x="2510.77" y="-202.65" font-family="Times,serif" font-size="14.00">ASSIGNMENT_STATEMENT</text>
</g>
<!-- node0x5651b8be9b10&#45;&#45;node0x5651b8be9a70 -->
<g id="edge35" class="edge">
<title>node0x5651b8be9b10&#45;&#45;node0x5651b8be9a70</title>
<path fill="none" stroke="black" d="M2341.58,-271.2C2377.7,-257.57 2430.83,-237.52 2467.88,-223.54"/>
</g>
<!-- node0x5651b8be9640 -->
<g id="node34" class="node">
<title>node0x5651b8be9640</title>
<ellipse fill="none" stroke="black" cx="2049.77" cy="-116.61" rx="106.55" ry="26.74"/>
<text text-anchor="middle" x="2049.77" y="-120.41" font-family="Times,serif" font-size="14.00">IDENTIFIER_DATA</text>
<text text-anchor="middle" x="2049.77" y="-105.41" font-family="Times,serif" font-size="14.00">A</text>
</g>
<!-- node0x5651b8be97c0&#45;&#45;node0x5651b8be9640 -->
<g id="edge33" class="edge">
<title>node0x5651b8be97c0&#45;&#45;node0x5651b8be9640</title>
<path fill="none" stroke="black" d="M2234.54,-187.49C2197.71,-173.56 2146.41,-154.16 2107.2,-139.33"/>
</g>
<!-- node0x5651b8be9700 -->
<g id="node35" class="node">
<title>node0x5651b8be9700</title>
<ellipse fill="none" stroke="black" cx="2281.77" cy="-116.61" rx="106.55" ry="26.74"/>
<text text-anchor="middle" x="2281.77" y="-120.41" font-family="Times,serif" font-size="14.00">IDENTIFIER_DATA</text>
<text text-anchor="middle" x="2281.77" y="-105.41" font-family="Times,serif" font-size="14.00">B</text>
</g>
<!-- node0x5651b8be97c0&#45;&#45;node0x5651b8be9700 -->
<g id="edge34" class="edge">
<title>node0x5651b8be97c0&#45;&#45;node0x5651b8be9700</title>
<path fill="none" stroke="black" d="M2281.77,-179.03C2281.77,-167.82 2281.77,-154.78 2281.77,-143.61"/>
</g>
<!-- node0x5651b8be9830 -->
<g id="node37" class="node">
<title>node0x5651b8be9830</title>
<ellipse fill="none" stroke="black" cx="2513.77" cy="-116.61" rx="106.55" ry="26.74"/>
<text text-anchor="middle" x="2513.77" y="-120.41" font-family="Times,serif" font-size="14.00">IDENTIFIER_DATA</text>
<text text-anchor="middle" x="2513.77" y="-105.41" font-family="Times,serif" font-size="14.00">A</text>
</g>
<!-- node0x5651b8be9a70&#45;&#45;node0x5651b8be9830 -->
<g id="edge36" class="edge">
<title>node0x5651b8be9a70&#45;&#45;node0x5651b8be9830</title>
<path fill="none" stroke="black" d="M2511.37,-188.02C2511.8,-175.33 2512.4,-157.9 2512.89,-143.56"/>
</g>
<!-- node0x5651b8be9a20 -->
<g id="node38" class="node">
<title>node0x5651b8be9a20</title>
<ellipse fill="none" stroke="black" cx="2719.77" cy="-116.61" rx="81.13" ry="26.74"/>
<text text-anchor="middle" x="2719.77" y="-120.41" font-family="Times,serif" font-size="14.00">EXPRESSION</text>
<text text-anchor="middle" x="2719.77" y="-105.41" font-family="Times,serif" font-size="14.00">+</text>
</g>
<!-- node0x5651b8be9a70&#45;&#45;node0x5651b8be9a20 -->
<g id="edge37" class="edge">
<title>node0x5651b8be9a70&#45;&#45;node0x5651b8be9a20</title>
<path fill="none" stroke="black" d="M2550.08,-188.85C2584.26,-174.5 2633.92,-153.65 2670.69,-138.22"/>
</g>
<!-- node0x5651b8be98a0 -->
<g id="node39" class="node">
<title>node0x5651b8be98a0</title>
<ellipse fill="none" stroke="black" cx="2554.77" cy="-26.87" rx="106.55" ry="26.74"/>
<text text-anchor="middle" x="2554.77" y="-30.67" font-family="Times,serif" font-size="14.00">IDENTIFIER_DATA</text>
<text text-anchor="middle" x="2554.77" y="-15.67" font-family="Times,serif" font-size="14.00">A</text>
</g>
<!-- node0x5651b8be9a20&#45;&#45;node0x5651b8be98a0 -->
<g id="edge38" class="edge">
<title>node0x5651b8be9a20&#45;&#45;node0x5651b8be98a0</title>
<path fill="none" stroke="black" d="M2678.14,-93.47C2653.98,-80.63 2623.58,-64.46 2599,-51.39"/>
</g>
<!-- node0x5651b8be9960 -->
<g id="node40" class="node">
<title>node0x5651b8be9960</title>
<ellipse fill="none" stroke="black" cx="2771.77" cy="-26.87" rx="92.76" ry="26.74"/>
<text text-anchor="middle" x="2771.77" y="-30.67" font-family="Times,serif" font-size="14.00">NUMBER_DATA</text>
<text text-anchor="middle" x="2771.77" y="-15.67" font-family="Times,serif" font-size="14.00">1</text>
</g>
<!-- node0x5651b8be9a20&#45;&#45;node0x5651b8be9960 -->
<g id="edge39" class="edge">
<title>node0x5651b8be9a20&#45;&#45;node0x5651b8be9960</title>
<path fill="none" stroke="black" d="M2735.09,-89.76C2741.86,-78.34 2749.8,-64.94 2756.56,-53.54"/>
</g>
<!-- node0x5651b8be9c20 -->
<g id="node42" class="node">
<title>node0x5651b8be9c20</title>
<ellipse fill="none" stroke="black" cx="2776.77" cy="-206.35" rx="106.55" ry="26.74"/>
<text text-anchor="middle" x="2776.77" y="-210.15" font-family="Times,serif" font-size="14.00">IDENTIFIER_DATA</text>
<text text-anchor="middle" x="2776.77" y="-195.15" font-family="Times,serif" font-size="14.00">A</text>
</g>
<!-- node0x5651b8be9fc0&#45;&#45;node0x5651b8be9c20 -->
<g id="edge41" class="edge">
<title>node0x5651b8be9fc0&#45;&#45;node0x5651b8be9c20</title>
<path fill="none" stroke="black" d="M2776.77,-269.11C2776.77,-258.69 2776.77,-245.17 2776.77,-233.43"/>
</g>
<!-- node0x5651b8be9f70 -->
<g id="node43" class="node">
<title>node0x5651b8be9f70</title>
<ellipse fill="none" stroke="black" cx="2982.77" cy="-206.35" rx="81.13" ry="26.74"/>
<text text-anchor="middle" x="2982.77" y="-210.15" font-family="Times,serif" font-size="14.00">EXPRESSION</text>
<text text-anchor="middle" x="2982.77" y="-195.15" font-family="Times,serif" font-size="14.00">call</text>
</g>
<!-- node0x5651b8be9fc0&#45;&#45;node0x5651b8be9f70 -->
<g id="edge42" class="edge">
<title>node0x5651b8be9fc0&#45;&#45;node0x5651b8be9f70</title>
<path fill="none" stroke="black" d="M2819.46,-269.88C2851.86,-257.47 2896.57,-240.35 2931.02,-227.16"/>
</g>
<!-- node0x5651b8be9c90 -->
<g id="node44" class="node">
<title>node0x5651b8be9c90</title>
<ellipse fill="none" stroke="black" cx="2925.77" cy="-116.61" rx="106.55" ry="26.74"/>
<text text-anchor="middle" x="2925.77" y="-120.41" font-family="Times,serif" font-size="14.00">IDENTIFIER_DATA</text>
<text text-anchor="middle" x="2925.77" y="-105.41" font-family="Times,serif" font-size="14.00">another</text>
</g>
<!-- node0x5651b8be9f70&#45;&#45;node0x5651b8be9c90 -->
<g id="edge43" class="edge">
<title>node0x5651b8be9f70&#45;&#45;node0x5651b8be9c90</title>
<path fill="none" stroke="black" d="M2966.29,-179.97C2958.79,-168.43 2949.94,-154.8 2942.42,-143.24"/>
</g>
<!-- node0x5651b8be9da0 -->
<g id="node45" class="node">
<title>node0x5651b8be9da0</title>
<ellipse fill="none" stroke="black" cx="3145.77" cy="-116.61" rx="94.78" ry="18"/>
<text text-anchor="middle" x="3145.77" y="-112.91" font-family="Times,serif" font-size="14.00">ARGUMENT_LIST</text>
</g>
<!-- node0x5651b8be9f70&#45;&#45;node0x5651b8be9da0 -->
<g id="edge44" class="edge">
<title>node0x5651b8be9f70&#45;&#45;node0x5651b8be9da0</title>
<path fill="none" stroke="black" d="M3024.33,-182.98C3052.91,-167.6 3090.19,-147.53 3115.87,-133.71"/>
</g>
<!-- node0x5651b8be9d00 -->
<g id="node46" class="node">
<title>node0x5651b8be9d00</title>
<ellipse fill="none" stroke="black" cx="3092.77" cy="-26.87" rx="106.55" ry="26.74"/>
<text text-anchor="middle" x="3092.77" y="-30.67" font-family="Times,serif" font-size="14.00">IDENTIFIER_DATA</text>
<text text-anchor="middle" x="3092.77" y="-15.67" font-family="Times,serif" font-size="14.00">A</text>
</g>
<!-- node0x5651b8be9da0&#45;&#45;node0x5651b8be9d00 -->
<g id="edge45" class="edge">
<title>node0x5651b8be9da0&#45;&#45;node0x5651b8be9d00</title>
<path fill="none" stroke="black" d="M3135.55,-98.69C3127.85,-85.94 3117.16,-68.24 3108.39,-53.72"/>
</g>
<!-- node0x5651b8be9e10 -->
<g id="node47" class="node">
<title>node0x5651b8be9e10</title>
<ellipse fill="none" stroke="black" cx="3324.77" cy="-26.87" rx="106.55" ry="26.74"/>
<text text-anchor="middle" x="3324.77" y="-30.67" font-family="Times,serif" font-size="14.00">IDENTIFIER_DATA</text>
<text text-anchor="middle" x="3324.77" y="-15.67" font-family="Times,serif" font-size="14.00">B</text>
</g>
<!-- node0x5651b8be9da0&#45;&#45;node0x5651b8be9e10 -->
<g id="edge46" class="edge">
<title>node0x5651b8be9da0&#45;&#45;node0x5651b8be9e10</title>
<path fill="none" stroke="black" d="M3178.6,-99.52C3206.26,-85.96 3246.18,-66.4 3277.31,-51.13"/>
</g>
<!-- node0x5651b8bea260 -->
<g id="node49" class="node">
<title>node0x5651b8bea260</title>
<ellipse fill="none" stroke="black" cx="2420.77" cy="-457.83" rx="106.55" ry="26.74"/>
<text text-anchor="middle" x="2420.77" y="-461.63" font-family="Times,serif" font-size="14.00">IDENTIFIER_DATA</text>
<text text-anchor="middle" x="2420.77" y="-446.63" font-family="Times,serif" font-size="14.00">another</text>
</g>
<!-- node0x5651b8bea800&#45;&#45;node0x5651b8bea260 -->
<g id="edge48" class="edge">
<title>node0x5651b8bea800&#45;&#45;node0x5651b8bea260</title>
<path fill="none" stroke="black" d="M2509.31,-521.74C2493.85,-510.76 2473.02,-495.95 2455.45,-483.47"/>
</g>
<!-- node0x5651b8bea320 -->
<g id="node50" class="node">
<title>node0x5651b8bea320</title>
<ellipse fill="none" stroke="black" cx="2642.77" cy="-457.83" rx="96.68" ry="18"/>
<text text-anchor="middle" x="2642.77" y="-454.13" font-family="Times,serif" font-size="14.00">PARAMETER_LIST</text>
</g>
<!-- node0x5651b8bea800&#45;&#45;node0x5651b8bea320 -->
<g id="edge49" class="edge">
<title>node0x5651b8bea800&#45;&#45;node0x5651b8bea320</title>
<path fill="none" stroke="black" d="M2554.24,-521.74C2573.24,-508.24 2600.37,-488.96 2619.58,-475.31"/>
</g>
<!-- node0x5651b8bea760 -->
<g id="node53" class="node">
<title>node0x5651b8bea760</title>
<ellipse fill="none" stroke="black" cx="2934.77" cy="-457.83" rx="44.39" ry="18"/>
<text text-anchor="middle" x="2934.77" y="-454.13" font-family="Times,serif" font-size="14.00">BLOCK</text>
</g>
<!-- node0x5651b8bea800&#45;&#45;node0x5651b8bea760 -->
<g id="edge52" class="edge">
<title>node0x5651b8bea800&#45;&#45;node0x5651b8bea760</title>
<path fill="none" stroke="black" d="M2582.81,-527.71C2664.46,-511.73 2822.69,-480.77 2895.89,-466.44"/>
</g>
<!-- node0x5651b8bea2d0 -->
<g id="node51" class="node">
<title>node0x5651b8bea2d0</title>
<ellipse fill="none" stroke="black" cx="2484.77" cy="-368.09" rx="106.55" ry="26.74"/>
<text text-anchor="middle" x="2484.77" y="-371.89" font-family="Times,serif" font-size="14.00">IDENTIFIER_DATA</text>
<text text-anchor="middle" x="2484.77" y="-356.89" font-family="Times,serif" font-size="14.00">x</text>
</g>
<!-- node0x5651b8bea320&#45;&#45;node0x5651b8bea2d0 -->
<g id="edge50" class="edge">
<title>node0x5651b8bea320&#45;&#45;node0x5651b8bea2d0</title>
<path fill="none" stroke="black" d="M2613.42,-440.53C2589.24,-427.1 2554.61,-407.87 2527.38,-392.75"/>
</g>
<!-- node0x5651b8bea390 -->
<g id="node52" class="node">
<title>node0x5651b8bea390</title>
<ellipse fill="none" stroke="black" cx="2716.77" cy="-368.09" rx="106.55" ry="26.74"/>
<text text-anchor="middle" x="2716.77" y="-371.89" font-family="Times,serif" font-size="14.00">IDENTIFIER_DATA</text>
<text text-anchor="middle" x="2716.77" y="-356.89" font-family="Times,serif" font-size="14.00">y</text>
</g>
<!-- node0x5651b8bea320&#45;&#45;node0x5651b8bea390 -->
<g id="edge51" class="edge">
<title>node0x5651b8bea320&#45;&#45;node0x5651b8bea390</title>
<path fill="none" stroke="black" d="M2657.04,-439.91C2667.88,-427.07 2682.96,-409.18 2695.26,-394.6"/>
</g>
<!-- node0x5651b8bea710 -->
<g id="node54" class="node">
<title>node0x5651b8bea710</title>
<ellipse fill="none" stroke="black" cx="3068.77" cy="-368.09" rx="96.68" ry="18"/>
<text text-anchor="middle" x="3068.77" y="-364.39" font-family="Times,serif" font-size="14.00">STATEMENT_LIST</text>
</g>
<!-- node0x5651b8bea760&#45;&#45;node0x5651b8bea710 -->
<g id="edge53" class="edge">
<title>node0x5651b8bea760&#45;&#45;node0x5651b8bea710</title>
<path fill="none" stroke="black" d="M2957.2,-442.14C2981.04,-426.53 3018.67,-401.9 3043.53,-385.62"/>
</g>
<!-- node0x5651b8bea670 -->
<g id="node55" class="node">
<title>node0x5651b8bea670</title>
<ellipse fill="none" stroke="black" cx="3207.77" cy="-287.22" rx="116.98" ry="18"/>
<text text-anchor="middle" x="3207.77" y="-283.52" font-family="Times,serif" font-size="14.00">RETURN_STATEMENT</text>
</g>
<!-- node0x5651b8bea710&#45;&#45;node0x5651b8bea670 -->
<g id="edge54" class="edge">
<title>node0x5651b8bea710&#45;&#45;node0x5651b8bea670</title>
<path fill="none" stroke="black" d="M3097.57,-350.75C3121.27,-337.3 3154.71,-318.33 3178.53,-304.81"/>
</g>
<!-- node0x5651b8bea620 -->
<g id="node56" class="node">
<title>node0x5651b8bea620</title>
<ellipse fill="none" stroke="black" cx="3365.77" cy="-206.35" rx="81.13" ry="26.74"/>
<text text-anchor="middle" x="3365.77" y="-210.15" font-family="Times,serif" font-size="14.00">EXPRESSION</text>
<text text-anchor="middle" x="3365.77" y="-195.15" font-family="Times,serif" font-size="14.00">+</text>
</g>
<!-- node0x5651b8bea670&#45;&#45;node0x5651b8bea620 -->
<g id="edge55" class="edge">
<title>node0x5651b8bea670&#45;&#45;node0x5651b8bea620</title>
<path fill="none" stroke="black" d="M3240.51,-269.88C3264.19,-258.06 3296.44,-241.96 3322.28,-229.06"/>
</g>
<!-- node0x5651b8bea4a0 -->
<g id="node57" class="node">
<title>node0x5651b8bea4a0</title>
<ellipse fill="none" stroke="black" cx="3365.77" cy="-116.61" rx="106.55" ry="26.74"/>
<text text-anchor="middle" x="3365.77" y="-120.41" font-family="Times,serif" font-size="14.00">IDENTIFIER_DATA</text>
<text text-anchor="middle" x="3365.77" y="-105.41" font-family="Times,serif" font-size="14.00">x</text>
</g>
<!-- node0x5651b8bea620&#45;&#45;node0x5651b8bea4a0 -->
<g id="edge56" class="edge">
<title>node0x5651b8bea620&#45;&#45;node0x5651b8bea4a0</title>
<path fill="none" stroke="black" d="M3365.77,-179.03C3365.77,-167.82 3365.77,-154.78 3365.77,-143.61"/>
</g>
<!-- node0x5651b8bea560 -->
<g id="node58" class="node">
<title>node0x5651b8bea560</title>
<ellipse fill="none" stroke="black" cx="3597.77" cy="-116.61" rx="106.55" ry="26.74"/>
<text text-anchor="middle" x="3597.77" y="-120.41" font-family="Times,serif" font-size="14.00">IDENTIFIER_DATA</text>
<text text-anchor="middle" x="3597.77" y="-105.41" font-family="Times,serif" font-size="14.00">y</text>
</g>
<!-- node0x5651b8bea620&#45;&#45;node0x5651b8bea560 -->
<g id="edge57" class="edge">
<title>node0x5651b8bea620&#45;&#45;node0x5651b8bea560</title>
<path fill="none" stroke="black" d="M3417.84,-185.66C3454.18,-171.92 3502.69,-153.57 3540.18,-139.39"/>
</g>
</g>
</svg>
